<svg xmlns="http://www.w3.org/2000/svg" width="134.31" height="23.615" viewBox="0 0 134.31 23.615">
  <g id="Group_1013" data-name="Group 1013" transform="translate(296 -999)">
    <g id="Group_1012" data-name="Group 1012" transform="translate(-443 126)">
      <path id="Path_1" data-name="Path 1" d="M254.3,25.854l.548-2.283.526-2.193q.223-.935.235-.985a.023.023,0,0,1,.006-.017,1.03,1.03,0,0,1,.4-.593,1.117,1.117,0,0,1,.683-.229h4.14a1.593,1.593,0,0,1,1.281.588,1.5,1.5,0,0,1,.319,1.348q-.039.168-.2.836t-.358,1.483l-.492,2.045A1.633,1.633,0,0,1,259.78,27.1H254q.056-.224.3-1.248m5.525-1.214.316-1.3q.173-.713.436-1.793a.217.217,0,0,0-.05-.185.212.212,0,0,0-.168-.078h-3.083q-.039.157-.19.783t-.338,1.39q-.188.764-.467,1.916h3.362q.039-.146.182-.733" transform="translate(-19.216 860.204)" fill="#1472ca"/>
      <path id="Path_2" data-name="Path 2" d="M280.349,31.119h.962a.46.46,0,0,0,.291-.112.575.575,0,0,0,.19-.252l.039-.157h-1.315a1.424,1.424,0,0,1-1.2-.582,1.566,1.566,0,0,1-.268-1.354l.912-3.765H281.8l-.912,3.765a.351.351,0,0,0,.062.252.288.288,0,0,0,.246.112h.99l1-4.129h.011l.006-.017h1.841l-1.41,5.874a2.62,2.62,0,0,1-.94,1.354,2.381,2.381,0,0,1-1.488.582h-1.259Z" transform="translate(-35.577 856.718)" fill="#1472ca"/>
      <path id="Path_3" data-name="Path 3" d="M301.494,30.619h-1.835l.945-3.76a.341.341,0,0,0-.062-.252.283.283,0,0,0-.241-.112h-1.365l-1.007,4.123H296.1l1.387-5.684h2.244v-.006h1.259a1.4,1.4,0,0,1,1.186.582,1.553,1.553,0,0,1,.269,1.348Z" transform="translate(-46.762 856.687)" fill="#1472ca"/>
      <path id="Path_4" data-name="Path 4" d="M318.137,30.618a2.265,2.265,0,0,1-1.228-.364,1.917,1.917,0,0,1-.629-.85,3.361,3.361,0,0,1,3.122-4.442h3.245l-1.37,5.678Zm2.171-3.5H320.3l.14-.6h-.867a1.714,1.714,0,0,0-1.124.375,1.523,1.523,0,0,0-.543.805q-.38,1.3.772,1.321h1.175Z" transform="translate(-59.846 856.665)" fill="#1472ca"/>
      <path id="Path_5" data-name="Path 5" d="M341.948,30.619h-1.835l.94-3.76a.312.312,0,0,0-.061-.252.292.292,0,0,0-.241-.112h-.8a1.765,1.765,0,0,1-.05.364l-.945,3.76H337.12l.94-3.76a.313.313,0,0,0-.061-.252.293.293,0,0,0-.241-.112h-.794l-1,4.123h-1.84l1.382-5.684h1.667v-.006h1.259a1.453,1.453,0,0,1,1.46,1.1l.257-1.091h.632l.006-.006h.632a1.43,1.43,0,0,1,1.2.582,1.576,1.576,0,0,1,.269,1.348Z" transform="translate(-71.65 856.687)" fill="#1472ca"/>
      <path id="Path_6" data-name="Path 6" d="M359.8,27.091l1.41-5.717h1.846l-1.387,5.717Zm1.874-7.553h1.841l-.347,1.343h-1.84Z" transform="translate(-88.452 860.214)" fill="#1472ca"/>
      <path id="Path_7" data-name="Path 7" d="M371.7,30.617a2.268,2.268,0,0,1-1.228-.364,1.918,1.918,0,0,1-.629-.851,3.36,3.36,0,0,1,3.122-4.442H376.2l-.375,1.556h-2.736a1.707,1.707,0,0,0-1.085.375,1.525,1.525,0,0,0-.543.806q-.38,1.3.772,1.32h2.987l-.392,1.623Z" transform="translate(-94.894 856.666)" fill="#1472ca"/>
      <path id="Path_8" data-name="Path 8" d="M254.3,25.854l.548-2.283.526-2.193q.223-.935.235-.985a.023.023,0,0,1,.006-.017,1.03,1.03,0,0,1,.4-.593,1.117,1.117,0,0,1,.683-.229h4.14a1.593,1.593,0,0,1,1.281.588,1.5,1.5,0,0,1,.319,1.348q-.039.168-.2.836t-.358,1.483l-.492,2.045A1.633,1.633,0,0,1,259.78,27.1H254q.056-.224.3-1.248m5.525-1.214.316-1.3q.173-.713.436-1.793a.217.217,0,0,0-.05-.185.212.212,0,0,0-.168-.078h-3.083q-.039.157-.19.783t-.338,1.39q-.188.764-.467,1.916h3.362q.039-.146.182-.733" transform="translate(-19.216 860.204)" fill="#1472ca"/>
      <path id="Path_9" data-name="Path 9" d="M280.349,31.119h.962a.46.46,0,0,0,.291-.112.575.575,0,0,0,.19-.252l.039-.157h-1.315a1.424,1.424,0,0,1-1.2-.582,1.566,1.566,0,0,1-.268-1.354l.912-3.765H281.8l-.912,3.765a.351.351,0,0,0,.062.252.288.288,0,0,0,.246.112h.99l1-4.129h.011l.006-.017h1.841l-1.41,5.874a2.62,2.62,0,0,1-.94,1.354,2.381,2.381,0,0,1-1.488.582h-1.259Z" transform="translate(-35.577 856.718)" fill="#1472ca"/>
      <path id="Path_10" data-name="Path 10" d="M301.494,30.619h-1.835l.945-3.76a.341.341,0,0,0-.062-.252.283.283,0,0,0-.241-.112h-1.365l-1.007,4.123H296.1l1.387-5.684h2.244v-.006h1.259a1.4,1.4,0,0,1,1.186.582,1.553,1.553,0,0,1,.269,1.348Z" transform="translate(-46.762 856.687)" fill="#1472ca"/>
      <path id="Path_11" data-name="Path 11" d="M318.137,30.618a2.265,2.265,0,0,1-1.228-.364,1.917,1.917,0,0,1-.629-.85,3.361,3.361,0,0,1,3.122-4.442h3.245l-1.37,5.678Zm2.171-3.5H320.3l.14-.6h-.867a1.714,1.714,0,0,0-1.124.375,1.523,1.523,0,0,0-.543.805q-.38,1.3.772,1.321h1.175Z" transform="translate(-59.846 856.665)" fill="#1472ca"/>
      <path id="Path_12" data-name="Path 12" d="M341.948,30.619h-1.835l.94-3.76a.312.312,0,0,0-.061-.252.292.292,0,0,0-.241-.112h-.8a1.765,1.765,0,0,1-.05.364l-.945,3.76H337.12l.94-3.76a.313.313,0,0,0-.061-.252.293.293,0,0,0-.241-.112h-.794l-1,4.123h-1.84l1.382-5.684h1.667v-.006h1.259a1.453,1.453,0,0,1,1.46,1.1l.257-1.091h.632l.006-.006h.632a1.43,1.43,0,0,1,1.2.582,1.576,1.576,0,0,1,.269,1.348Z" transform="translate(-71.65 856.687)" fill="#1472ca"/>
      <path id="Path_13" data-name="Path 13" d="M359.8,27.091l1.41-5.717h1.846l-1.387,5.717Zm1.874-7.553h1.841l-.347,1.343h-1.84Z" transform="translate(-88.452 860.214)" fill="#1472ca"/>
      <path id="Path_14" data-name="Path 14" d="M371.7,30.617a2.268,2.268,0,0,1-1.228-.364,1.918,1.918,0,0,1-.629-.851,3.36,3.36,0,0,1,3.122-4.442H376.2l-.375,1.556h-2.736a1.707,1.707,0,0,0-1.085.375,1.525,1.525,0,0,0-.543.806q-.38,1.3.772,1.32h2.987l-.392,1.623Z" transform="translate(-94.894 856.666)" fill="#1472ca"/>
      <path id="Path_15" data-name="Path 15" d="M252.725,47.521a1.647,1.647,0,0,1,1.583-1.248h.481l-.531,2.3-.14.588h2.859a.409.409,0,0,0,.252-.084.4.4,0,0,0,.151-.229l.067-.285h.006l.532-2.294h1.829l-1.561,6.3a1.614,1.614,0,0,1-1.589,1.248h-.481l.532-2.221.168-.672h-2.853a.419.419,0,0,0-.431.313l-.051.213-.571,2.366h-1.79Z" transform="translate(-17.374 842.719)" fill="#1472ca"/>
      <path id="Path_16" data-name="Path 16" d="M275.943,56.813a1.935,1.935,0,0,1-.632-.867,3.3,3.3,0,0,1,.2-2.668,3.243,3.243,0,0,1,2.932-1.718,7.468,7.468,0,0,1,1,.011,2.351,2.351,0,0,1,1.253.405,2.056,2.056,0,0,1,.644.881,3.3,3.3,0,0,1-3.189,4.4,6.541,6.541,0,0,1-.962-.017,2.647,2.647,0,0,1-1.248-.431m3.737-2.271a1.434,1.434,0,0,0,.011-.974q-.162-.335-.8-.392a2.166,2.166,0,0,0-1.365.285,1.516,1.516,0,0,0-.554.8q-.386,1.27.789,1.365a2.214,2.214,0,0,0,1.365-.285,1.489,1.489,0,0,0,.554-.8" transform="translate(-33.033 839.267)" fill="#1472ca"/>
      <path id="Path_17" data-name="Path 17" d="M294.511,57.332l.381-1.544h2.915q.464.039.559-.291.011-.358-.537-.324h-.822a1.647,1.647,0,0,1-1.3-.548,1.7,1.7,0,0,1-.28-1.471,2.139,2.139,0,0,1,2.484-1.505h3.1l-.364,1.483h-3.015q-.342-.017-.392.246a.235.235,0,0,0,.145.274,1.116,1.116,0,0,0,.465.05l.733-.022a1.542,1.542,0,0,1,1.371.587,2.1,2.1,0,0,1,.179,1.471,1.947,1.947,0,0,1-2.272,1.595Z" transform="translate(-45.726 839.207)" fill="#1472ca"/>
      <path id="Path_18" data-name="Path 18" d="M313.727,51.873l1.382-5.617h1.813q-.459,1.8-.476,1.858h1.337l-.4,1.65h-1.331q-.146.6-.241.993l-.173.716q-.078.321-.1.4a.337.337,0,0,0,.067.252.277.277,0,0,0,.235.112h.94l-.38,1.572h-1.22A1.389,1.389,0,0,1,314,53.227a1.6,1.6,0,0,1-.274-1.354" transform="translate(-58.271 842.73)" fill="#1472ca"/>
      <path id="Path_19" data-name="Path 19" d="M336.7,46.273h3.687a1.576,1.576,0,0,1,1.276.587,1.5,1.5,0,0,1,.33,1.349c0,.007-.01.063-.031.165s-.047.223-.081.361-.07.271-.109.4a1.251,1.251,0,0,1-.115.28,1.565,1.565,0,0,1-.484.5,1.95,1.95,0,0,1-.49.246.162.162,0,0,1,.067.042c.034.028.068.058.1.09a.471.471,0,0,1,.076.081,1.48,1.48,0,0,1,.274,1.22V51.6q-.011.056-.062.26t-.1.417q-.053.213-.081.3a1.633,1.633,0,0,1-1.612,1.248h-5.768q.431-1.8.716-2.979l.518-2.146q.232-.962.282-1.175a1.623,1.623,0,0,1,1.606-1.248m-.856,5.818h3.183a.134.134,0,0,0,.1-.042.443.443,0,0,0,.07-.089.174.174,0,0,0,.028-.065.144.144,0,0,0,.014-.047c.006-.028.014-.062.025-.1s.021-.075.028-.109l.017-.078a.5.5,0,0,0-.1-.442.513.513,0,0,0-.425-.19h-2.658q-.078.313-.129.526t-.1.395c-.03.121-.049.2-.056.243m.918-3.905-.224.979h2.909a.555.555,0,0,0,.336-.106.49.49,0,0,0,.19-.285l.064-.224.047-.171c.015-.054.024-.092.028-.114a.218.218,0,0,0-.05-.185A.212.212,0,0,0,339.9,48h-2.909a.217.217,0,0,0-.129.05.269.269,0,0,0-.1.134" transform="translate(-71.293 842.719)" fill="#1472ca"/>
      <path id="Path_20" data-name="Path 20" d="M357.311,52.572q.246-1.024.548-2.283l.526-2.193q.223-.935.235-.985a.023.023,0,0,1,.006-.017,1.03,1.03,0,0,1,.4-.593,1.116,1.116,0,0,1,.683-.229h4.14a1.593,1.593,0,0,1,1.281.588,1.5,1.5,0,0,1,.319,1.348q-.039.168-.2.836t-.358,1.483q-.2.814-.492,2.045a1.632,1.632,0,0,1-1.611,1.248h-5.779q.056-.224.3-1.248m5.525-1.214.316-1.3.437-1.793a.218.218,0,0,0-.05-.185A.212.212,0,0,0,363.37,48h-3.083q-.039.157-.19.783t-.338,1.39q-.188.764-.467,1.916h3.362q.039-.146.182-.733" transform="translate(-86.624 842.72)" fill="#1472ca"/>
      <path id="Path_21" data-name="Path 21" d="M188.011,27.157a2.278,2.278,0,0,1-1.832-2.292,2.206,2.206,0,0,1,.056-.449,2.244,2.244,0,0,1,.142-.425,2.269,2.269,0,0,1,.529-.736,1.651,1.651,0,0,0,.528-1.2v-.011a2.326,2.326,0,0,0-3.837-1.767s0,0,0,0a2.274,2.274,0,0,1-3.891-1.6,2.341,2.341,0,0,1,.038-.42c-.128-.008-.257-.013-.388-.013a5.44,5.44,0,0,0-5.441,5.441,5.63,5.63,0,0,0,.031.59,2.837,2.837,0,0,0-4.943,1.9c0,.034,0,.068,0,.1-.1-.006-.193-.01-.29-.01a4.613,4.613,0,0,0-4.612,4.612,4.721,4.721,0,0,0,4.933,4.6l16.287,0a5.677,5.677,0,0,0,5.933-5.535,5.528,5.528,0,0,0-1.181-3.422,2.275,2.275,0,0,1-2.064.639m-7.6,3.827c-.108.008-.218.012-.329.012h-1.874l.749-2.4h-.638l-.753,2.409c-.068.006-.135.009-.2.009a2.548,2.548,0,0,1-1.786-.728l1.375-4.355v0a2.783,2.783,0,0,0,.411,5.536h3.748v.261h-.449l-.084.266h.9v.262h-.982l-.084.266H181.9v.261h-1.577l-.084.266H181.6v.261h-1.437l-.084.266h1.276v.261h-1.359l-.084.266h.463v.261h-2.879a4.564,4.564,0,0,1-.329-9.115c.109-.008.219-.012.329-.012h1.875l-.75,2.4h.638l.753-2.409c.067-.006.135-.008.2-.008a2.547,2.547,0,0,1,1.786.728L180.626,30.3v0a2.783,2.783,0,0,0-.411-5.536h-4.155V24.5h.857l.084-.266h-.6v-.261h.681l.084-.266h-1.011v-.262h1.092l.084-.266h-1.481v-.261h1.564l.084-.266h-1.219v-.261h1.3l.084-.266h-1.019v-.261h3.434a4.563,4.563,0,0,1,.329,9.115" transform="translate(39.612 861.065)" fill="#1472ca"/>
      <path id="Path_22" data-name="Path 22" d="M213.008,18.164a1.487,1.487,0,1,0-1.456-1.795,1.455,1.455,0,0,0-.032.308,1.487,1.487,0,0,0,1.489,1.487" transform="translate(8.584 863.06)" fill="#1472ca"/>
      <path id="Path_23" data-name="Path 23" d="M233,2.275a1.137,1.137,0,1,0-1.137-1.137A1.137,1.137,0,0,0,233,2.275" transform="translate(-4.727 873)" fill="#1472ca"/>
      <path id="Path_24" data-name="Path 24" d="M227.009,15.187a1.137,1.137,0,1,0-1.137-1.137,1.137,1.137,0,0,0,1.137,1.137" transform="translate(-0.809 864.55)" fill="#1472ca"/>
      <path id="Path_25" data-name="Path 25" d="M243.182,16.2a1.137,1.137,0,1,0,1.137,1.137,1.137,1.137,0,0,0-1.137-1.137" transform="translate(-11.392 862.397)" fill="#1472ca"/>
      <path id="Path_26" data-name="Path 26" d="M239.422,12.557a.6.6,0,1,0-.6-.6.6.6,0,0,0,.6.6" transform="translate(-9.284 865.566)" fill="#1472ca"/>
      <path id="Path_27" data-name="Path 27" d="M219.065,7.78a.6.6,0,1,0-.6-.6.6.6,0,0,0,.6.6" transform="translate(4.038 868.692)" fill="#1472ca"/>
      <path id="Path_28" data-name="Path 28" d="M235.695,21.673a.6.6,0,1,0,.6.6.6.6,0,0,0-.6-.6" transform="translate(-6.845 858.817)" fill="#1472ca"/>
      <path id="Path_29" data-name="Path 29" d="M242.471,28.741a.6.6,0,1,0,.6.6.6.6,0,0,0-.6-.6" transform="translate(-11.279 854.192)" fill="#1472ca"/>
      <path id="Path_30" data-name="Path 30" d="M231.739,33.279a1.487,1.487,0,0,0-1.439,1.11h0a1.5,1.5,0,0,0-.048.377,1.488,1.488,0,1,0,1.488-1.487" transform="translate(-3.674 851.222)" fill="#1472ca"/>
    </g>
    <text id="Powered_by" data-name="Powered by" transform="translate(-296 1019.615)" fill="#1472ca" font-size="8.8" font-family="Poppins-Medium, Poppins" font-weight="500"><tspan x="0" y="0" letter-spacing="-0.017em">P</tspan><tspan y="0" letter-spacing="-0.01em">o</tspan><tspan y="0">wered </tspan><tspan y="0" letter-spacing="-0.011em">b</tspan><tspan y="0">y</tspan></text>
  </g>
</svg>
