<svg id="Group_795" data-name="Group 795" xmlns="http://www.w3.org/2000/svg" width="38.435" height="39" viewBox="0 0 38.435 39">
  <path id="Path_6662" data-name="Path 6662" d="M313.713,490.516h-22.1a4.156,4.156,0,0,0-4.156,4.156v30.691a4.153,4.153,0,0,0,4.153,4.153H313.7a4.153,4.153,0,0,0,4.153-4.153V494.655a4.144,4.144,0,0,0-4.138-4.139m2.385,34.847a2.4,2.4,0,0,1-2.4,2.4H291.618a2.4,2.4,0,0,1-2.4-2.4V494.668a2.4,2.4,0,0,1,2.4-2.4H313.7a2.4,2.4,0,0,1,2.4,2.4Z" transform="translate(-287.462 -490.516)" fill="#747d8d"/>
  <path id="Path_6663" data-name="Path 6663" d="M313.711,492.283H291.627a2.406,2.406,0,0,0-2.4,2.4v30.691a2.4,2.4,0,0,0,2.4,2.4h22.081a2.4,2.4,0,0,0,2.4-2.4v-30.7a2.4,2.4,0,0,0-2.4-2.4m-14.924,29.271-3.475,3.474a.869.869,0,0,1-.618.256.884.884,0,0,1-.621-.256l-1.545-1.544a.913.913,0,0,1-.173-1.092.874.874,0,0,1,1.378-.183l.95.948a.014.014,0,0,0,.02,0l2.876-2.876a.873.873,0,0,1,1.377.182.911.911,0,0,1-.171,1.092m0-6.312-3.475,3.475a.876.876,0,0,1-.618.255.891.891,0,0,1-.621-.255l-1.545-1.546a.913.913,0,0,1-.173-1.092.874.874,0,0,1,1.378-.182l.95.947a.013.013,0,0,0,.02,0l2.876-2.876a.873.873,0,0,1,1.377.182.913.913,0,0,1-.171,1.093m0-6.313-3.475,3.475a.876.876,0,0,1-.618.256.89.89,0,0,1-.621-.256l-1.545-1.545a.914.914,0,0,1-.173-1.093.874.874,0,0,1,1.378-.182l.95.947a.013.013,0,0,0,.02,0l2.876-2.875a.872.872,0,0,1,1.377.182.911.911,0,0,1-.171,1.092m0-6.313-3.475,3.475a.874.874,0,0,1-.618.256.888.888,0,0,1-.621-.256l-1.545-1.545a.913.913,0,0,1-.173-1.092.874.874,0,0,1,1.378-.182l.95.948a.015.015,0,0,0,.02,0l2.876-2.877a.873.873,0,0,1,1.377.182.911.911,0,0,1-.171,1.092m0-6.312-3.475,3.474a.875.875,0,0,1-.618.255.889.889,0,0,1-.621-.255l-1.545-1.546a.913.913,0,0,1-.173-1.092.874.874,0,0,1,1.378-.182l.95.947a.014.014,0,0,0,.02,0l2.876-2.876a.873.873,0,0,1,1.377.182.913.913,0,0,1-.171,1.093m13.433,28.28h-9.249a.92.92,0,0,1-.935-.8.877.877,0,0,1,.873-.956h9.249a.919.919,0,0,1,.935.8.876.876,0,0,1-.873.956m0-6.313h-9.249a.919.919,0,0,1-.935-.8.878.878,0,0,1,.873-.956h9.249a.919.919,0,0,1,.935.8.876.876,0,0,1-.873.956m0-6.313h-9.249a.919.919,0,0,1-.935-.8.877.877,0,0,1,.873-.956h9.249a.92.92,0,0,1,.935.8.876.876,0,0,1-.873.956m0-6.312h-9.249a.92.92,0,0,1-.935-.8.876.876,0,0,1,.873-.955h9.249a.918.918,0,0,1,.935.8.876.876,0,0,1-.873.957m0-6.313h-9.249a.919.919,0,0,1-.935-.8.878.878,0,0,1,.873-.957h9.249a.919.919,0,0,1,.935.8.877.877,0,0,1-.873.957" transform="translate(-287.474 -490.528)" fill="#747d8d"/>
  <path id="Path_6664" data-name="Path 6664" d="M324.849,494.146a.013.013,0,0,1-.006-.011v-1.888a1.736,1.736,0,0,0-1.895-1.724,1.792,1.792,0,0,0-1.574,1.813v1.8a.013.013,0,0,1-.006.011,3.011,3.011,0,0,0-1.281,2.464v26.318h.284l2.649,6.555a.014.014,0,0,0,.026,0l2.79-6.555h.291V496.61a3.017,3.017,0,0,0-1.278-2.464m-2.437-1.9a.7.7,0,0,1,.8-.686.731.731,0,0,1,.586.739v1.358a.013.013,0,0,1-.017.013,3,3,0,0,0-.677-.081,3.05,3.05,0,0,0-.678.081.014.014,0,0,1-.017-.013Zm1.968,28.948h-2.546a.014.014,0,0,1-.015-.014v-7.53a.015.015,0,0,1,.015-.015h2.546a.015.015,0,0,1,.014.015v7.53a.013.013,0,0,1-.014.014m0-8.6h-2.546a.015.015,0,0,1-.015-.014V496.657a1.318,1.318,0,0,1,1.033-1.308,1.289,1.289,0,0,1,1.542,1.262v15.976a.014.014,0,0,1-.014.014" transform="translate(-287.692 -490.516)" fill="#747d8d"/>
</svg>
