<svg id="Group_835" data-name="Group 835" xmlns="http://www.w3.org/2000/svg" width="49.03" height="49.03" viewBox="0 0 49.03 49.03">
  <g id="style_fill" data-name="style=fill" transform="translate(0)">
    <g id="web" transform="translate(0 0)">
      <g id="Vector">
        <path id="Path_6755" data-name="Path 6755" d="M24.312,10.383a37.552,37.552,0,0,1,.211,3.775,46.9,46.9,0,0,1-.681,7.286,46.9,46.9,0,0,1-7.286.681,46.973,46.973,0,0,1-7.287-.682,46.924,46.924,0,0,1-.681-7.286A37.5,37.5,0,0,1,8.8,10.383a50.354,50.354,0,0,0,7.756.711A50.354,50.354,0,0,0,24.312,10.383Z" transform="translate(7.96 10.357)" fill="#4c87d4"/>
        <path id="Path_6756" data-name="Path 6756" d="M17.029,11.856a41.809,41.809,0,0,1,.262,4.437,47.293,47.293,0,0,1-.531,6.573c4.629-.966,8.907-2.2,11.2-2.9.741-.227,1.032-.317,1.422-.473.2-.078.374-.157.607-.269a24.8,24.8,0,0,0,.173-2.929,24.5,24.5,0,0,0-1.172-7.51l-.2.062C26.4,9.575,21.909,10.864,17.029,11.856Z" transform="translate(18.869 8.222)" fill="#4c87d4"/>
        <path id="Path_6757" data-name="Path 6757" d="M29.853,14.479c-2.409.73-6.59,1.917-11.071,2.84A124.837,124.837,0,0,0,15.07,1.956,24.584,24.584,0,0,1,29.853,14.479Z" transform="translate(16.613 -0.891)" fill="#4c87d4"/>
        <path id="Path_6758" data-name="Path 6758" d="M23.418,18.6a46.868,46.868,0,0,1-7.265.678A46.865,46.865,0,0,1,8.888,18.6,121.482,121.482,0,0,1,12.483,3.7c.227-.741.317-1.032.473-1.422.078-.2.157-.374.269-.607a24.856,24.856,0,0,1,5.985.016c.021.081.041.154.06.223.057.2.147.489.3.968l.016.05A123.168,123.168,0,0,1,23.418,18.6Z" transform="translate(8.362 -1.5)" fill="#4c87d4"/>
        <path id="Path_6759" data-name="Path 6759" d="M13.669,17.319a124.741,124.741,0,0,1,3.693-15.3l.018-.06A24.583,24.583,0,0,0,2.6,14.479C5.007,15.209,9.188,16.4,13.669,17.319Z" transform="translate(-0.034 -0.891)" fill="#4c87d4"/>
        <path id="Path_6760" data-name="Path 6760" d="M2.672,8.783A24.5,24.5,0,0,0,1.5,16.293a24.76,24.76,0,0,0,.185,3.027l.386.129h.01c.124.041,3.769,1.245,8.569,2.439,1.354.337,2.788.67,4.252.975a47.28,47.28,0,0,1-.531-6.573,41.805,41.805,0,0,1,.262-4.437C9.752,10.864,5.264,9.574,2.868,8.845L2.851,8.84Z" transform="translate(-1.5 8.222)" fill="#4c87d4"/>
        <path id="Path_6761" data-name="Path 6761" d="M15.758,17.291a47.293,47.293,0,0,0,6.573-.531c-.966,4.629-2.2,8.907-2.9,11.2-.227.741-.317,1.032-.473,1.422-.078.2-.157.374-.269.607a24.871,24.871,0,0,1-5.857,0c-.111-.233-.191-.412-.269-.607-.156-.39-.247-.682-.473-1.422-.7-2.292-1.936-6.57-2.9-11.2A47.286,47.286,0,0,0,15.758,17.291Z" transform="translate(8.757 18.869)" fill="#4c87d4"/>
        <path id="Path_6762" data-name="Path 6762" d="M9.153,17.068c-3.035-.755-5.62-1.514-7.2-2A24.571,24.571,0,0,0,18.238,31.352l-.018-.06a131.208,131.208,0,0,1-3.269-12.934C12.921,17.966,10.948,17.514,9.153,17.068Z" transform="translate(-0.891 16.613)" fill="#4c87d4"/>
        <path id="Path_6763" data-name="Path 6763" d="M31.292,15.089a131.159,131.159,0,0,1-12.935,3.269,131.177,131.177,0,0,1-3.269,12.935l-.018.06A24.57,24.57,0,0,0,31.352,15.07Z" transform="translate(16.613 16.613)" fill="#4c87d4"/>
        <path id="Path_6764" data-name="Path 6764" d="M1.61,13.323c.085.011.154.023.177.028l.063.016.025.007.014,0,.014,0,.012,0C1.909,13.385,1.772,13.351,1.61,13.323Z" transform="translate(-1.353 14.281)" fill="#4c87d4"/>
      </g>
    </g>
  </g>
</svg>
