<svg id="Group_790" data-name="Group 790" xmlns="http://www.w3.org/2000/svg" width="39" height="32.2" viewBox="0 0 39 32.2">
  <g id="Group_786" data-name="Group 786">
    <path id="Path_6700" data-name="Path 6700" d="M224.964,399.233h-3.028v-3.691h-4.666v3.691H202.031v-3.691h-4.666v3.691h-3.023a4.2,4.2,0,0,0-4.191,4.191v20.131a4.194,4.194,0,0,0,4.191,4.187h30.622a4.192,4.192,0,0,0,4.187-4.187V403.424a4.194,4.194,0,0,0-4.187-4.191m2.414,24.323a2.419,2.419,0,0,1-2.414,2.414H194.342a2.42,2.42,0,0,1-2.415-2.414V405.183h35.451Zm-35.451-20.149a2.418,2.418,0,0,1,2.415-2.4h30.622a2.418,2.418,0,0,1,2.414,2.4Z" transform="translate(-190.15 -395.542)" fill="#fb5968"/>
    <path id="Path_6701" data-name="Path 6701" d="M191.939,405.251v18.373a2.42,2.42,0,0,0,2.415,2.414h30.622a2.419,2.419,0,0,0,2.414-2.414V405.251Zm11.1,15.366a2.666,2.666,0,0,1-2.662,2.663h-3.907a2.666,2.666,0,0,1-2.663-2.663v-1.758a2.667,2.667,0,0,1,2.663-2.663h3.907a2.666,2.666,0,0,1,2.662,2.663Zm0-8.842a2.665,2.665,0,0,1-2.662,2.662h-3.907a2.666,2.666,0,0,1-2.663-2.662v-1.758a2.667,2.667,0,0,1,2.663-2.663h3.907a2.666,2.666,0,0,1,2.662,2.663Zm11.236,8.842a2.662,2.662,0,0,1-2.659,2.663h-3.91a2.666,2.666,0,0,1-2.662-2.663v-1.758a2.666,2.666,0,0,1,2.662-2.663h3.91a2.663,2.663,0,0,1,2.659,2.663Zm0-8.842a2.662,2.662,0,0,1-2.659,2.662h-3.91a2.665,2.665,0,0,1-2.662-2.662v-1.758a2.666,2.666,0,0,1,2.662-2.663h3.91a2.663,2.663,0,0,1,2.659,2.663Zm11.24,8.842a2.666,2.666,0,0,1-2.663,2.663h-3.906a2.666,2.666,0,0,1-2.663-2.663v-1.758a2.667,2.667,0,0,1,2.663-2.663h3.906a2.667,2.667,0,0,1,2.663,2.663Zm0-8.842a2.666,2.666,0,0,1-2.663,2.662h-3.906a2.666,2.666,0,0,1-2.663-2.662v-1.758a2.667,2.667,0,0,1,2.663-2.663h3.906a2.667,2.667,0,0,1,2.663,2.663Z" transform="translate(-190.163 -395.61)" fill="#fb5968"/>
    <path id="Path_6702" data-name="Path 6702" d="M200.464,410.056l-2.326,2.326a.417.417,0,0,1-.295.12.411.411,0,0,1-.295-.12l-1.1-1.1a.414.414,0,0,1,0-.585.418.418,0,0,1,.59,0l.8.8,2.031-2.031a.416.416,0,1,1,.59.586" transform="translate(-190.193 -395.639)" fill="#fb5968"/>
    <path id="Path_6703" data-name="Path 6703" d="M211.765,410.087l-2.345,2.34a.469.469,0,0,1-.336.142.456.456,0,0,1-.33-.142l-.968-.962a.474.474,0,0,1,.67-.67l.628.632,2.011-2.011a.474.474,0,0,1,.67.67" transform="translate(-190.273 -395.639)" fill="#fb5968"/>
    <path id="Path_6704" data-name="Path 6704" d="M222.569,411.8a.423.423,0,0,1,0,.6.418.418,0,0,1-.3.122.409.409,0,0,1-.3-.122l-.878-.877-.878.877a.417.417,0,0,1-.3.122.409.409,0,0,1-.3-.122.423.423,0,0,1,0-.6l.877-.877-.877-.878a.42.42,0,1,1,.6-.592l.878.878.878-.878a.42.42,0,0,1,.6.592l-.882.878Z" transform="translate(-190.356 -395.639)" fill="#fb5968"/>
    <path id="Path_6705" data-name="Path 6705" d="M200.448,418.993l-2.344,2.343a.48.48,0,0,1-.671,0l-.963-.964a.476.476,0,0,1,0-.671.47.47,0,0,1,.667,0l.632.633,2.013-2.013a.473.473,0,0,1,.666.671" transform="translate(-190.194 -395.701)" fill="#fb5968"/>
    <path id="Path_6706" data-name="Path 6706" d="M222.916,419.063l-2.148,2.148a.438.438,0,0,1-.308.126.429.429,0,0,1-.308-.126l-.883-.883a.436.436,0,0,1,0-.616.431.431,0,0,1,.611,0l.58.581,1.841-1.845a.434.434,0,0,1,.615.614" transform="translate(-190.354 -395.702)" fill="#fb5968"/>
    <path id="Path_6707" data-name="Path 6707" d="M211.25,420.707a.42.42,0,1,1-.592.6l-.882-.876-.877.876a.42.42,0,0,1-.592-.6l.877-.877-.877-.877a.422.422,0,0,1,0-.6.418.418,0,0,1,.592,0l.877.876.882-.876a.417.417,0,0,1,.592,0,.423.423,0,0,1,0,.6l-.877.877Z" transform="translate(-190.277 -395.702)" fill="#fb5968"/>
  </g>
</svg>
