<svg xmlns="http://www.w3.org/2000/svg" width="21.674" height="21.674" viewBox="0 0 21.674 21.674">
  <g id="Group_1004" data-name="Group 1004" transform="translate(-123.163 -320.63)">
    <path id="Path_7328" data-name="Path 7328" d="M11.362,261.666a10.835,10.835,0,0,0-9.257,16.47L.6,281.85a1.083,1.083,0,0,0,1.411,1.411l3.715-1.5a10.837,10.837,0,1,0,5.632-20.094m0,19.507a8.62,8.62,0,0,1-4.9-1.522,1.082,1.082,0,0,0-.614-.191,1.1,1.1,0,0,0-.406.079l-1.87.756.756-1.87a1.082,1.082,0,0,0-.111-1.02,8.668,8.668,0,1,1,7.148,3.767" transform="translate(122.638 58.964)" fill="#202020"/>
    <path id="Path_7329" data-name="Path 7329" d="M25.847,275.656a4.339,4.339,0,0,0-4.335,4.335h2.167a2.167,2.167,0,1,1,2.168,2.168H24.763v3.251h2.168v-1.221a4.335,4.335,0,0,0-1.084-8.532" transform="translate(108.153 49.309)" fill="#202020"/>
    <rect id="Rectangle_525" data-name="Rectangle 525" width="2.167" height="2.168" transform="translate(132.916 335.802)" fill="#202020"/>
  </g>
</svg>
