<svg xmlns="http://www.w3.org/2000/svg" width="21.674" height="21.674" viewBox="0 0 21.674 21.674">
  <g id="Group_1007" data-name="Group 1007" transform="translate(-123.163 -442.235)">
    <path id="Path_7334" data-name="Path 7334" d="M22.2,664.384c0-5.64-4.862-10.227-10.837-10.227S.526,658.745.526,664.384s4.862,10.228,10.837,10.228a11.243,11.243,0,0,0,4.111-.773l2.9,1.826a1.084,1.084,0,0,0,1.659-1l-.281-3.821a9.85,9.85,0,0,0,2.451-6.463m-4.351,5.332a1.084,1.084,0,0,0-.3.827l.157,2.144-1.559-.982a1.087,1.087,0,0,0-1.022-.071,9.119,9.119,0,0,1-3.767.81c-4.78,0-8.67-3.616-8.67-8.06s3.889-8.06,8.67-8.06,8.67,3.616,8.67,8.06a7.732,7.732,0,0,1-2.183,5.332" transform="translate(122.637 -211.922)" fill="#202020"/>
    <path id="Path_7335" data-name="Path 7335" d="M19.1,682.139a1.083,1.083,0,0,0-1.084,1.084v1.084a1.084,1.084,0,0,0,2.168,0v-1.084a1.083,1.083,0,0,0-1.084-1.084" transform="translate(110.567 -231.234)" fill="#202020"/>
    <path id="Path_7336" data-name="Path 7336" d="M33.089,678.641a1.083,1.083,0,0,0-1.084,1.084v3.251a1.084,1.084,0,0,0,2.168,0v-3.251a1.083,1.083,0,0,0-1.084-1.084" transform="translate(100.911 -228.82)" fill="#202020"/>
    <path id="Path_7337" data-name="Path 7337" d="M47.08,682.139A1.083,1.083,0,0,0,46,683.223v1.084a1.084,1.084,0,0,0,2.168,0v-1.084a1.083,1.083,0,0,0-1.084-1.084" transform="translate(91.255 -231.234)" fill="#202020"/>
  </g>
</svg>
