<svg id="Group_777" data-name="Group 777" xmlns="http://www.w3.org/2000/svg" width="50.46" height="46.535" viewBox="0 0 50.46 46.535">
  <path id="Path_6658" data-name="Path 6658" d="M150.487,225.984,144.8,204.767a6.606,6.606,0,0,0-8.09-4.671l-31.56,8.457a6.606,6.606,0,0,0-4.671,8.09l5.686,21.217a6.6,6.6,0,0,0,8.09,4.67l9.961-2.669,12.8,6.543-2.493-9.3,11.292-3.026a6.6,6.6,0,0,0,4.67-8.09m-13.731,2.256c-.469,1.672-2,4.049-6.81,4.754a14.949,14.949,0,0,1-9.767-2.373,14.953,14.953,0,0,1-6.938-7.27c-1.8-4.522-.5-7.034.712-8.276a3.3,3.3,0,0,1,3.215-.857,11.727,11.727,0,0,1,3.307,1.574c3.444,2.252.154,4.892-1.307,5.863a1.376,1.376,0,0,0-.589,1.529l.007.022a2.691,2.691,0,0,0,1.249,1.46c1.307.758,4.366,2.525,5.676,3.276a2.691,2.691,0,0,0,1.886.352l.024,0a1.376,1.376,0,0,0,1.03-1.276c.11-1.75.753-5.919,4.423-4.062a11.693,11.693,0,0,1,3.016,2.077,3.3,3.3,0,0,1,.866,3.213m-13.519-14.128,1.859-.494a6.008,6.008,0,0,1,7.356,4.247l.5,1.853-2.367.639-.5-1.853a3.556,3.556,0,0,0-4.353-2.514l-1.859.494Zm10.821,5.311-.574-2.16a6.859,6.859,0,0,0-8.382-4.839l-2.164.579-.952-3.555,2.158-.582a10.539,10.539,0,0,1,12.9,7.444l.577,2.155Z" transform="translate(-100.254 -199.869)" fill="#1d4b70"/>
</svg>
