<svg id="Group_782" data-name="Group 782" xmlns="http://www.w3.org/2000/svg" width="39" height="39.094" viewBox="0 0 39 39.094">
  <path id="Path_6672" data-name="Path 6672" d="M226.791,313.4v-5.643a1.942,1.942,0,0,0-1.942-1.938H191.89V327.83a1.941,1.941,0,0,0,1.942,1.938h31.017a1.939,1.939,0,0,0,1.942-1.938v-5.983h1.821v5.983a3.764,3.764,0,0,1-3.763,3.767H193.832a3.767,3.767,0,0,1-3.764-3.767V302.062a3.765,3.765,0,0,1,3.764-3.767h9.336l-1.821,1.825h-7.515a1.939,1.939,0,1,0,0,3.878h30.217v-1.935a1.938,1.938,0,0,0-1.934-1.942H218.9l-1.825-1.825h5.039a3.767,3.767,0,0,1,3.763,3.767v2.079a3.764,3.764,0,0,1,2.734,3.619V313.4Z" transform="translate(-190.068 -292.504)" fill="#00a63e"/>
  <path id="Path_6673" data-name="Path 6673" d="M222.83,303.957h-2.582l-4.6-4.6-4.6,4.6h-2.579l5.7-5.7h.374l-1.634-1.635-7.336,7.336H203l8.627-8.627-.76-.757a.977.977,0,0,0-1.376,0l-9.384,9.384h-2.582L208.2,293.282a2.8,2.8,0,0,1,3.958,0Z" transform="translate(-190.12 -292.463)" fill="#00a63e"/>
  <path id="Path_6674" data-name="Path 6674" d="M214.664,298.293h-.374l.187-.187Z" transform="translate(-190.238 -292.503)" fill="#00a63e"/>
  <path id="Path_6675" data-name="Path 6675" d="M223.5,313.457H226.8v-5.644a1.942,1.942,0,0,0-1.942-1.938H191.9v22.008a1.942,1.942,0,0,0,1.942,1.938h31.017a1.939,1.939,0,0,0,1.942-1.938V321.9H223.5a4.222,4.222,0,0,1,0-8.443m-17.812,12.257a7.868,7.868,0,1,1,7.87-7.866,7.863,7.863,0,0,1-7.87,7.866" transform="translate(-190.081 -292.557)" fill="#00a63e"/>
  <path id="Path_6676" data-name="Path 6676" d="M210.4,315.856v1.119c0,.105-.028.133-.129.133h-4.848c-.059,0-.059,0-.059.058v4.087a.4.4,0,0,0,.16.328.813.813,0,0,0,.394.152,1.911,1.911,0,0,0,.542-.024,2.942,2.942,0,0,0,.92-.308,2.046,2.046,0,0,0,.472-.37,2.394,2.394,0,0,0,.184-.219,1.375,1.375,0,0,0,.144-.219,1.487,1.487,0,0,0,.172-.421,1.359,1.359,0,0,0-.039-.807.728.728,0,0,0-.168-.234s0-.012-.016-.007c.008.047.016.089.02.136a1.032,1.032,0,0,1-.679,1.119,1.259,1.259,0,0,1-1.119-.1,1.071,1.071,0,0,1-.5-.69,1.479,1.479,0,0,1,.091-1.025,1.37,1.37,0,0,1,.733-.7,1.85,1.85,0,0,1,1.685.093,2.238,2.238,0,0,1,.191.129,2.007,2.007,0,0,1,.7,1.072,2.3,2.3,0,0,1,.082.635,2.954,2.954,0,0,1-.156.854,3.171,3.171,0,0,1-1.432,1.774,3.784,3.784,0,0,1-1.306.477,3.65,3.65,0,0,1-.8.069,3.689,3.689,0,0,1-.792-.132,2.461,2.461,0,0,1-.491-.187.947.947,0,0,1-.358-.355,1.492,1.492,0,0,1-.21-.776v-4.356c0-.031-.008-.042-.043-.042h-.827c-.1,0-.144-.04-.152-.141v-1.091c0-.117.043-.16.156-.16.132,0,.265,0,.4,0s.277,0,.418,0c.039,0,.047-.008.047-.048a6,6,0,0,0-.032-.655.955.955,0,0,0-.14-.4.442.442,0,0,0-.328-.2,1.1,1.1,0,0,0-.7.148.329.329,0,0,1-.125.042.081.081,0,0,1-.073-.042c-.125-.207-.242-.413-.359-.624a.11.11,0,0,1,0-.1.237.237,0,0,1,.082-.093,2.869,2.869,0,0,1,.834-.409,3.658,3.658,0,0,1,.538-.129c.067-.008.141-.019.207-.023a1.8,1.8,0,0,1,.208,0,1.2,1.2,0,0,1,.288.027,1.317,1.317,0,0,1,.742.433,1.655,1.655,0,0,1,.343.69,3.638,3.638,0,0,1,.1.967c0,.125,0,.25,0,.371,0,.047.016.051.051.051h4.847c.1,0,.133.038.133.136" transform="translate(-190.152 -292.609)" fill="#00a63e"/>
  <path id="Path_6677" data-name="Path 6677" d="M223.7,315.353a2.395,2.395,0,1,0,0,4.789h5.584v-4.789Zm.109,3.99a1.6,1.6,0,1,1,1.6-1.6,1.6,1.6,0,0,1-1.6,1.6" transform="translate(-190.288 -292.624)" fill="#00a63e"/>
</svg>
