<svg xmlns="http://www.w3.org/2000/svg" width="22" height="22" viewBox="0 0 22 22">
  <g id="Group_1010" data-name="Group 1010" transform="translate(-123 -563.678)">
    <path id="Path_7346" data-name="Path 7346" d="M32.3,1076.092a.893.893,0,0,0-.89.818l-.547,6.529a.893.893,0,0,0,.89.967h1.093a.892.892,0,0,0,.89-.967l-.547-6.529a.893.893,0,0,0-.89-.818" transform="translate(101.703 -503.129)" fill="#202020"/>
    <path id="Path_7347" data-name="Path 7347" d="M32.3,1063.77a1.44,1.44,0,1,0,1.44,1.44,1.44,1.44,0,0,0-1.44-1.44" transform="translate(101.704 -494.625)" fill="#202020"/>
    <path id="Path_7348" data-name="Path 7348" d="M11,1046.123a11,11,0,1,0,11,11,11.013,11.013,0,0,0-11-11m0,19.8a8.8,8.8,0,1,1,8.8-8.8,8.81,8.81,0,0,1-8.8,8.8" transform="translate(123 -482.445)" fill="#202020"/>
  </g>
</svg>
