<svg xmlns="http://www.w3.org/2000/svg" width="17.34" height="21.674" viewBox="0 0 17.34 21.674">
  <g id="Group_1006" data-name="Group 1006" transform="translate(-125.33 -401.7)">
    <path id="Path_7330" data-name="Path 7330" d="M24.543,527.978l-4.335-4.335a1.083,1.083,0,0,0-.766-.318H8.6a1.083,1.083,0,0,0-1.084,1.084v19.507A1.083,1.083,0,0,0,8.6,545H23.777a1.083,1.083,0,0,0,1.084-1.084V528.745a1.083,1.083,0,0,0-.318-.766m-1.85,14.854h-13v-17.34h9.3l3.7,3.7Z" transform="translate(117.809 -121.626)" fill="#202020"/>
    <path id="Path_7331" data-name="Path 7331" d="M29.1,568.8H22.6a1.084,1.084,0,0,0,0,2.168h6.5a1.084,1.084,0,0,0,0-2.168" transform="translate(108.152 -153.009)" fill="#202020"/>
    <path id="Path_7332" data-name="Path 7332" d="M21.512,555.89a1.083,1.083,0,0,0,1.084,1.084h6.5a1.084,1.084,0,1,0,0-2.168H22.6a1.083,1.083,0,0,0-1.084,1.084" transform="translate(108.153 -143.353)" fill="#202020"/>
    <path id="Path_7333" data-name="Path 7333" d="M22.6,542.983h2.168a1.084,1.084,0,0,0,0-2.168H22.6a1.084,1.084,0,1,0,0,2.168" transform="translate(108.153 -133.696)" fill="#202020"/>
  </g>
</svg>
