<svg xmlns="http://www.w3.org/2000/svg" width="23.019" height="23.019" viewBox="0 0 23.019 23.019">
  <g id="Group_993" data-name="Group 993" transform="translate(692.213 165.533)">
    <path id="Path_7323" data-name="Path 7323" d="M790.964,50.462v-3.9l-4.539,7.878h4.643a1.439,1.439,0,0,1,1.431,1.444v3.9l4.539-7.878H792.4a1.439,1.439,0,0,1-1.431-1.444" transform="translate(-1472.435 -207.194)" fill="#4f4f4f"/>
    <path id="Path_7324" data-name="Path 7324" d="M745.091,0H732.814a5.377,5.377,0,0,0-5.371,5.371V17.648a5.377,5.377,0,0,0,5.371,5.371h12.277a5.377,5.377,0,0,0,5.371-5.371V5.371A5.377,5.377,0,0,0,745.091,0m.573,10.882-4.811,8.349a1.412,1.412,0,0,1-1.228.72,1.443,1.443,0,0,1-.375-.05,1.426,1.426,0,0,1-1.065-1.4v-4.2h-4.707a1.415,1.415,0,0,1-1.235-.716,1.462,1.462,0,0,1,0-1.456l4.811-8.349a1.429,1.429,0,0,1,2.668.726v4.2h4.707a1.415,1.415,0,0,1,1.235.716,1.462,1.462,0,0,1,0,1.456" transform="translate(-1419.656 -165.533)" fill="#4f4f4f"/>
  </g>
</svg>
