<svg id="Group_788" data-name="Group 788" xmlns="http://www.w3.org/2000/svg" width="34.776" height="39" viewBox="0 0 34.776 39">
  <g id="Group_784" data-name="Group 784" transform="translate(0 0)">
    <path id="Path_6722" data-name="Path 6722" d="M23.47,423.233a9.662,9.662,0,0,1,9.576-9.648v-10.6h0l-11.555-6.67-11.551,6.67v25.942H7.242v2.223H27.6a9.651,9.651,0,0,1-4.133-7.914m-3.032,2.053H15.006v-5.429h5.433Zm0-7.321H15.006v-5.429h5.433Zm0-7.321H15.006v-5.429h5.433Zm1.889-5.429h5.429v5.429H22.327Zm0,7.321h5.429l-.236.143a14.526,14.526,0,0,0-5.192,5.286Z" transform="translate(-6.261 -392.148)" fill="#7569b0"/>
    <path id="Path_6723" data-name="Path 6723" d="M33.25,415.458a7.912,7.912,0,1,0,5.3,13.779,7.667,7.667,0,0,0,1.157-1.3,7.9,7.9,0,0,0-6.457-12.476m0,14.085a6.173,6.173,0,1,1,6.171-6.174,6.179,6.179,0,0,1-6.171,6.174" transform="translate(-6.388 -392.282)" fill="#7569b0"/>
    <path id="Path_6724" data-name="Path 6724" d="M36.513,421.527c-.118,0-3.709,0-3.855,0-.032,0-.044-.008-.044-.04,0-.1,0-.2,0-.3a2.979,2.979,0,0,0-.079-.771,1.358,1.358,0,0,0-.273-.545,1.039,1.039,0,0,0-.589-.344,1.14,1.14,0,0,0-.233-.024c-.052,0-.106,0-.162,0s-.111.012-.166.02a2.177,2.177,0,0,0-.427.1,2.212,2.212,0,0,0-.664.328.232.232,0,0,0-.068.071.087.087,0,0,0,0,.083c.094.163.19.329.284.495a.06.06,0,0,0,.06.032.213.213,0,0,0,.1-.032.919.919,0,0,1,.557-.118.361.361,0,0,1,.261.162.759.759,0,0,1,.111.321c.019.174.019.348.024.521,0,.032-.008.04-.036.04-.111,0-.221,0-.333,0h-.32c-.087,0-.123.036-.123.126v.871c.008.079.04.11.123.11h.656c.027,0,.036.008.036.036v3.467a1.2,1.2,0,0,0,.166.617.736.736,0,0,0,.284.277,1.842,1.842,0,0,0,.392.15,2.631,2.631,0,0,0,.629.107,2.8,2.8,0,0,0,.633-.051,3.013,3.013,0,0,0,1.044-.383,2.548,2.548,0,0,0,1.139-1.408,2.349,2.349,0,0,0,.118-.684,1.821,1.821,0,0,0-.063-.506,1.576,1.576,0,0,0-.554-.851.911.911,0,0,0-.15-.1,1.493,1.493,0,0,0-1.344-.075,1.079,1.079,0,0,0-.581.558,1.164,1.164,0,0,0-.072.818.86.86,0,0,0,.4.55,1,1,0,0,0,.894.078.818.818,0,0,0,.538-.889c0-.036-.012-.071-.016-.106.008,0,.012,0,.016,0a.6.6,0,0,1,.126.186,1.082,1.082,0,0,1,.036.645,1.225,1.225,0,0,1-.138.332c-.036.064-.075.119-.115.179a2.03,2.03,0,0,1-.146.17,1.527,1.527,0,0,1-.376.293,2.284,2.284,0,0,1-.727.248,1.446,1.446,0,0,1-.435.016.657.657,0,0,1-.313-.118.319.319,0,0,1-.13-.265v-3.25c0-.043,0-.043.048-.043h3.859c.079,0,.1-.024.1-.106v-.89c0-.079-.028-.111-.107-.111" transform="translate(-6.42 -392.311)" fill="#7569b0"/>
    <path id="Path_6725" data-name="Path 6725" d="M35.566,402.464l.932-1.615-15.123-8.731L6.254,400.849l.931,1.615,14.191-8.193Z" transform="translate(-6.254 -392.118)" fill="#7569b0"/>
  </g>
</svg>
