<svg id="Group_771" data-name="Group 771" xmlns="http://www.w3.org/2000/svg" width="33.213" height="48.705" viewBox="0 0 33.213 48.705">
  <path id="Path_6583" data-name="Path 6583" d="M325.555,3.8h-1.7a11.926,11.926,0,0,1-1.061,11.986,11.631,11.631,0,0,1-1.751,1.968A11.94,11.94,0,0,1,302.236,3.8h-1.7a4.1,4.1,0,0,0-4.1,4.1V43.7a4.1,4.1,0,0,0,4.1,4.1h25.019a4.1,4.1,0,0,0,4.1-4.1V7.893a4.1,4.1,0,0,0-4.1-4.1m-13.9,39.369a1.074,1.074,0,0,1-.763.315h-8.627a1.078,1.078,0,1,1,0-2.156h8.627a1.079,1.079,0,0,1,.763,1.841m0-4.313a1.079,1.079,0,0,1-.763.315h-8.627a1.079,1.079,0,1,1,0-2.158h8.627a1.08,1.08,0,0,1,.763,1.843m0-4.314a1.074,1.074,0,0,1-.763.315h-8.627a1.078,1.078,0,1,1,0-2.156h8.627a1.079,1.079,0,0,1,.763,1.841m7.864,8.942a5.392,5.392,0,1,1,5.392-5.392,5.394,5.394,0,0,1-5.392,5.392m5.077-13.255a1.081,1.081,0,0,1-.764.314H302.262a1.078,1.078,0,1,1,0-2.156h21.567a1.08,1.08,0,0,1,.764,1.843m0-4.314a1.077,1.077,0,0,1-.764.315H302.262a1.078,1.078,0,1,1,0-2.156h21.567a1.079,1.079,0,0,1,.764,1.841" transform="translate(-296.439 0.911)" fill="#7fb71e"/>
  <path id="Path_6584" data-name="Path 6584" d="M311.724,19.589a9.737,9.737,0,0,0,6.56-2.533,9.321,9.321,0,0,0,1.432-1.613,9.787,9.787,0,1,0-7.992,4.147m0-17.436a7.641,7.641,0,1,1-7.639,7.639,7.646,7.646,0,0,1,7.639-7.639" transform="translate(-295.121)" fill="#7fb71e"/>
  <path id="Path_6585" data-name="Path 6585" d="M306.864,5.377a.072.072,0,0,0,.073.04.257.257,0,0,0,.123-.04,1.13,1.13,0,0,1,.689-.146.451.451,0,0,1,.324.2.948.948,0,0,1,.138.4c.024.216.024.43.029.646,0,.04-.01.05-.043.05-.138,0-.274,0-.412,0h-.4c-.107,0-.151.043-.151.156V7.751c.01.1.05.138.151.138h.813c.034,0,.043.01.043.043v4.293a1.513,1.513,0,0,0,.206.764.916.916,0,0,0,.352.342,2.221,2.221,0,0,0,.485.186,3.294,3.294,0,0,0,.777.133,3.528,3.528,0,0,0,.784-.064,3.693,3.693,0,0,0,1.292-.475,3.143,3.143,0,0,0,1.41-1.742,2.96,2.96,0,0,0,.146-.847,2.241,2.241,0,0,0-.078-.626,1.947,1.947,0,0,0-.686-1.052,1.082,1.082,0,0,0-.186-.128,1.846,1.846,0,0,0-1.664-.093,1.346,1.346,0,0,0-.719.691,1.449,1.449,0,0,0-.088,1.012,1.056,1.056,0,0,0,.495.681,1.239,1.239,0,0,0,1.106.1,1.013,1.013,0,0,0,.666-1.1c0-.045-.015-.088-.02-.133.01,0,.015,0,.02,0a.766.766,0,0,1,.156.231,1.346,1.346,0,0,1,.045.8,1.481,1.481,0,0,1-.172.412c-.043.078-.093.146-.141.221a2.605,2.605,0,0,1-.181.21,1.854,1.854,0,0,1-.465.362,2.822,2.822,0,0,1-.9.309,1.833,1.833,0,0,1-.539.02.8.8,0,0,1-.386-.148.393.393,0,0,1-.162-.327V7.937c0-.053,0-.053.059-.053h4.777c.1,0,.128-.03.128-.133V6.65c0-.1-.035-.136-.133-.136-.146,0-4.591,0-4.772,0-.04,0-.054-.01-.054-.05,0-.122,0-.249,0-.372a3.7,3.7,0,0,0-.1-.954,1.687,1.687,0,0,0-.337-.676,1.3,1.3,0,0,0-.729-.427,1.521,1.521,0,0,0-.289-.029c-.063,0-.133,0-.2,0s-.136.015-.206.024a2.83,2.83,0,0,0-.528.128,2.737,2.737,0,0,0-.822.407.267.267,0,0,0-.083.088.108.108,0,0,0,0,.1c.118.2.234.405.352.611" transform="translate(-294.024 0.963)" fill="#7fb71e"/>
  <path id="Path_6586" data-name="Path 6586" d="M317.632,29.6l-1.156,1.156-1.6,1.6L313.7,31.187,312.482,32.4l2.39,2.394,3.977-3.978-.609-.608Z" transform="translate(-292.588 7.105)" fill="#7fb71e"/>
</svg>
