<svg id="Group_778" data-name="Group 778" xmlns="http://www.w3.org/2000/svg" width="48.266" height="45.722" viewBox="0 0 48.266 45.722">
  <path id="Path_6657" data-name="Path 6657" d="M242.673,211.621h-.511v-.456a1.556,1.556,0,0,0-1.555-1.554h-1.92v-4.447a3.888,3.888,0,0,0-3.245-3.852q-.35-.071-.7-.134a81.119,81.119,0,0,0-15.353-1.074,81.079,81.079,0,0,0-15.349,1.074c-.234.042-.466.087-.7.134a3.884,3.884,0,0,0-3.245,3.852v4.447h-1.92a1.556,1.556,0,0,0-1.555,1.554v.456h-.51a.852.852,0,0,0-.853.853v6.67a.852.852,0,0,0,.853.852H198.3a.852.852,0,0,0,.853-.852v-6.67a.852.852,0,0,0-.853-.853h-.51v-.456a.386.386,0,0,1,.386-.386h1.92v25.841a5.163,5.163,0,0,0,3.026,4.7v3.461a1.021,1.021,0,0,0,1.021,1.021h5.31a1.02,1.02,0,0,0,1.021-1.021v-3h17.837v3a1.021,1.021,0,0,0,1.022,1.021h5.307a1.02,1.02,0,0,0,1.021-1.021v-3.461a5.16,5.16,0,0,0,3.027-4.7V210.779h1.92a.385.385,0,0,1,.386.386v.456h-.51a.852.852,0,0,0-.853.853v6.67a.852.852,0,0,0,.853.852h2.19a.853.853,0,0,0,.853-.852v-6.67a.853.853,0,0,0-.853-.853m-32.045-8.708a.542.542,0,0,1,.542-.541h16.447a.54.54,0,0,1,.539.541v2.618a.539.539,0,0,1-.539.541H211.17a.541.541,0,0,1-.542-.541Zm-4.545,34.734a3.252,3.252,0,1,1,3.251-3.251,3.252,3.252,0,0,1-3.251,3.251m-1.141-12.673a2.1,2.1,0,0,1-2.1-2.1V209.74a1.819,1.819,0,0,1,1.822-1.819h14.217v17.053ZM226.23,237.94a.7.7,0,0,1-.5.207H213.056a.708.708,0,0,1-.708-.708.707.707,0,0,1,.708-.708h12.675a.708.708,0,0,1,.5,1.209m0-3.043a.7.7,0,0,1-.5.207H213.056a.709.709,0,0,1-.5-1.21.7.7,0,0,1,.5-.207h12.675a.709.709,0,0,1,.5,1.21m0-3.044a.7.7,0,0,1-.5.208H213.056a.709.709,0,1,1,0-1.417h12.675a.708.708,0,0,1,.708.709.7.7,0,0,1-.208.5m-6.322-6.879V207.921h14.218a1.816,1.816,0,0,1,1.818,1.819v13.13a2.1,2.1,0,0,1-2.1,2.1Zm12.8,12.673a3.252,3.252,0,1,1,3.251-3.251,3.252,3.252,0,0,1-3.251,3.251" transform="translate(-195.26 -200.079)" fill="#e7000b"/>
</svg>
