<svg id="Group_781" data-name="Group 781" xmlns="http://www.w3.org/2000/svg" width="32.563" height="39" viewBox="0 0 32.563 39">
  <path id="Path_6682" data-name="Path 6682" d="M124.629,326.552a1.11,1.11,0,1,1-1.11-1.11,1.112,1.112,0,0,1,1.11,1.11" transform="translate(-99.157 -292.742)" fill="#f93d6e"/>
  <path id="Path_6683" data-name="Path 6683" d="M130.068,292.51H105.615a1.48,1.48,0,0,0-1.479,1.484v1.482h-2.2a2.948,2.948,0,0,0-2.947,2.944v17.62a1.487,1.487,0,0,0,1.483,1.482h11.718v1.11a2.934,2.934,0,0,0,.779,2.344,2.348,2.348,0,0,0,1.258.544v1.343a2.183,2.183,0,0,0-1.669,2.115v4.356a2.179,2.179,0,0,0,2.175,2.175h9.919a2.179,2.179,0,0,0,2.175-2.175v-4.356a2.18,2.18,0,0,0-1.483-2.063V312.372a2.864,2.864,0,0,0-.91-2.1l-3.4-3.187v-2.9h7.178l1.507-.365a3.332,3.332,0,0,0,1.831-2.972v-6.854a1.487,1.487,0,0,0-1.486-1.484m-29.594,23.53V298.42a1.464,1.464,0,0,1,1.465-1.462h17.617v13.365l-1.683-1.51a2.9,2.9,0,0,0-2.48-.717,2.989,2.989,0,0,0-1.644.93c-.053.06-.1.12-.144.176a2.918,2.918,0,0,0,.306,3.823l2.638,2.631v.383Zm24.179,8.06a.879.879,0,0,1,.879.879v4.356a.878.878,0,0,1-.879.879h-9.919a.878.878,0,0,1-.875-.879v-4.356a.878.878,0,0,1,.875-.879Zm-1.1-12.881a1.578,1.578,0,0,1,.5,1.153V322.8H115.53v-1.943a.652.652,0,0,0-.783-.635,1.2,1.2,0,0,1-.217.021,1.1,1.1,0,0,1-.71-.246c-.295-.252-.331-.861-.331-1.364v-1.11h3.06v2.052a1.1,1.1,0,0,0,1.093,1.1h1.222a.648.648,0,0,0,0-1.3h-1.019v-3.8a1.093,1.093,0,0,0-.324-.772l-2.695-2.691a1.622,1.622,0,0,1-.2-2.115,1.131,1.131,0,0,1,.084-.1,1.688,1.688,0,0,1,.931-.526,1.6,1.6,0,0,1,1.359.407l2.551,2.295,1.483,1.334,1.093.984a.647.647,0,1,0,.868-.959l-1.961-1.767v-2.8Zm-2.512-8.52v-3.844a1.9,1.9,0,0,1,1.76-1.894.078.078,0,0,0-.025,0h.162a1.894,1.894,0,0,1,1.887,1.662v.105l.011.032.014.035a2.1,2.1,0,0,1,.035.358v1.7a3.283,3.283,0,0,0,.566,1.852Zm9.03-1.852a1.851,1.851,0,1,1-3.7,0v-1.669a3.932,3.932,0,0,0-.039-.53l-.015-.028c0-.022,0-.05-.007-.071v-.109l-.017-.049c-.007-.042-.014-.088-.025-.134a.969.969,0,0,0-.018-.1c0-.018-.007-.032-.01-.046-.007-.043-.022-.081-.029-.12a.774.774,0,0,0-.028-.084.8.8,0,0,0-.032-.108,1.037,1.037,0,0,0-.035-.1,3.448,3.448,0,0,0-.783-1.23,3.376,3.376,0,0,0-2.393-.987c-.046,0-.094,0-.14,0h-.032c-.036,0-.071,0-.105,0H105.615v-1.482h24.453Z" transform="translate(-98.992 -292.51)" fill="#f93d6e"/>
  <path id="Path_6684" data-name="Path 6684" d="M101.95,296.989a1.463,1.463,0,0,0-1.465,1.461v17.621h16.074v-.383l-2.639-2.631a2.917,2.917,0,0,1-.3-3.823c.046-.057.091-.116.144-.176a2.994,2.994,0,0,1,1.644-.931,2.9,2.9,0,0,1,2.48.717l1.683,1.51V296.989Zm1.609,2.379a.833.833,0,0,1,.6-.249h1.124a.847.847,0,0,1,.847.846.85.85,0,0,1-.847.847h-1.124a.848.848,0,0,1-.847-.847.827.827,0,0,1,.25-.6m3.851,14.861a4.168,4.168,0,1,1,4.17-4.167,4.165,4.165,0,0,1-4.17,4.167m9.609-10.74a.847.847,0,0,1-.847.846H104.156a.848.848,0,0,1-.847-.846v0a.848.848,0,0,1,.847-.847h12.016a.847.847,0,0,1,.847.847Zm-.249-2.927a.836.836,0,0,1-.6.249h-7.508a.847.847,0,0,1-.847-.847.851.851,0,0,1,.847-.846h7.508a.847.847,0,0,1,.847.846.83.83,0,0,1-.249.6" transform="translate(-99.003 -292.542)" fill="#f93d6e"/>
  <path id="Path_6685" data-name="Path 6685" d="M109.9,309.056v.594c0,.052-.018.07-.071.07h-2.568c-.029,0-.029,0-.029.032v2.16a.206.206,0,0,0,.084.176.416.416,0,0,0,.208.081.966.966,0,0,0,.288-.011,1.51,1.51,0,0,0,.489-.165.93.93,0,0,0,.249-.2.942.942,0,0,0,.1-.112c.025-.039.053-.077.077-.116a.845.845,0,0,0,.088-.225.751.751,0,0,0-.022-.428.419.419,0,0,0-.083-.123s-.008,0-.015,0a.655.655,0,0,1,.015.074.547.547,0,0,1-.362.59.66.66,0,0,1-.594-.052.582.582,0,0,1-.263-.365.787.787,0,0,1,.046-.544.734.734,0,0,1,.389-.373,1,1,0,0,1,.893.049.908.908,0,0,1,.1.071,1.039,1.039,0,0,1,.372.569,1.307,1.307,0,0,1,.043.333,1.581,1.581,0,0,1-.081.457,1.7,1.7,0,0,1-.759.938,1.953,1.953,0,0,1-.7.253,1.822,1.822,0,0,1-.418.035,1.863,1.863,0,0,1-.418-.071,1.318,1.318,0,0,1-.263-.1.536.536,0,0,1-.19-.186.782.782,0,0,1-.109-.416c0-.144,0-.292,0-.439,0-.5,0-1.781,0-1.866,0-.018-.007-.024-.025-.024h-.435c-.057,0-.077-.021-.081-.073v-.58c0-.059.018-.08.081-.084h.211c.073,0,.148,0,.221,0,.021,0,.025-.007.025-.029,0-.115,0-.231-.018-.347a.5.5,0,0,0-.071-.211.249.249,0,0,0-.176-.109.605.605,0,0,0-.368.077.124.124,0,0,1-.066.021.043.043,0,0,1-.043-.021c-.064-.109-.126-.217-.19-.331-.011-.017,0-.034,0-.052a.267.267,0,0,1,.046-.049,1.621,1.621,0,0,1,.443-.218,1.578,1.578,0,0,1,.284-.067c.036-.007.075-.01.113-.014a1,1,0,0,1,.108,0,.787.787,0,0,1,.152.018.694.694,0,0,1,.393.228.884.884,0,0,1,.183.366,2.13,2.13,0,0,1,.052.513v.2c0,.021,0,.028.025.028.1,0,2.49,0,2.568,0,.053,0,.071.021.071.071" transform="translate(-99.038 -292.617)" fill="#f93d6e"/>
</svg>
