<svg id="Group_794" data-name="Group 794" xmlns="http://www.w3.org/2000/svg" width="30.393" height="39" viewBox="0 0 30.393 39">
  <path id="Path_6659" data-name="Path 6659" d="M220.709,490.516H198.6a4.144,4.144,0,0,0-4.143,4.139v30.723a4.145,4.145,0,0,0,4.143,4.139h22.111a4.144,4.144,0,0,0,4.14-4.139V494.655a4.144,4.144,0,0,0-4.14-4.139m2.386,34.861a2.39,2.39,0,0,1-2.386,2.386H198.6a2.394,2.394,0,0,1-2.389-2.386V494.655a2.391,2.391,0,0,1,2.389-2.385h22.111a2.387,2.387,0,0,1,2.386,2.385Z" transform="translate(-194.456 -490.516)" fill="#1b83a8"/>
  <path id="Path_6660" data-name="Path 6660" d="M220.723,492.282H198.612a2.39,2.39,0,0,0-2.389,2.385V525.39a2.393,2.393,0,0,0,2.389,2.386h22.111a2.391,2.391,0,0,0,2.386-2.386V494.667a2.388,2.388,0,0,0-2.386-2.385m-19.573,8.408.432-.239-.372-.33a2.8,2.8,0,1,1,3.717,0l-.373.33.432.239a4.67,4.67,0,0,1,2.452,3.567c0,1.707-1.894,1.844-4.371,1.844s-4.37-.137-4.37-1.844a4.671,4.671,0,0,1,2.453-3.567m18.959,24.494H199.223a.877.877,0,0,1,0-1.754h20.885a.877.877,0,1,1,0,1.754m0-4.7H199.223a.877.877,0,0,1,0-1.754h20.885a.877.877,0,1,1,0,1.754m0-4.7H199.223a.877.877,0,0,1,0-1.754h20.885a.877.877,0,0,1,0,1.754m0-4.7H199.223a.877.877,0,1,1,0-1.753h20.885a.877.877,0,1,1,0,1.753m0-4.7H212.2a.877.877,0,0,1,0-1.754h7.909a.877.877,0,1,1,0,1.754m0-4.7H212.2a.877.877,0,0,1,0-1.754h7.909a.877.877,0,0,1,0,1.754m0-4.7H212.2a.877.877,0,1,1,0-1.753h7.909a.877.877,0,1,1,0,1.753" transform="translate(-194.469 -490.528)" fill="#1b83a8"/>
</svg>
