<svg xmlns="http://www.w3.org/2000/svg" width="23.019" height="22.412" viewBox="0 0 23.019 22.412">
  <g id="Group_996" data-name="Group 996" transform="translate(768.715 165.23)">
    <path id="Path_7319" data-name="Path 7319" d="M79.309,126.249a3.546,3.546,0,0,0-3.541,3.541v5.9h7.083v-5.9a3.546,3.546,0,0,0-3.541-3.541" transform="translate(-836.515 -278.505)" fill="#4f4f4f"/>
    <path id="Path_7320" data-name="Path 7320" d="M20.872,8.493,13.723,3.475a4.459,4.459,0,0,0-4.494.042L2.212,8.451A4.439,4.439,0,0,0,0,12.284v10.36A2.659,2.659,0,0,0,2.656,25.3H6.2V19.4a5.312,5.312,0,1,1,10.624,0v5.9h3.541a2.659,2.659,0,0,0,2.656-2.656V12.284a4.4,4.4,0,0,0-2.147-3.791" transform="translate(-768.715 -168.118)" fill="#4f4f4f"/>
  </g>
</svg>
