<svg xmlns="http://www.w3.org/2000/svg" width="21.67" height="15.169" viewBox="0 0 21.67 15.169">
  <g id="Group_1020" data-name="Group 1020" transform="translate(-274 -718.487)">
    <path id="Path_7352" data-name="Path 7352" d="M21.213,138.932a1.081,1.081,0,0,0-.986-.137l-4.048,1.426A3.254,3.254,0,0,0,13,137.65H3.251A3.254,3.254,0,0,0,0,140.9v8.668a3.254,3.254,0,0,0,3.251,3.25H13a3.254,3.254,0,0,0,3.177-2.571l4.048,1.427a1.083,1.083,0,0,0,1.443-1.022V139.817a1.085,1.085,0,0,0-.457-.885m-7.128,10.636A1.084,1.084,0,0,1,13,150.652H3.251a1.085,1.085,0,0,1-1.084-1.083V140.9a1.084,1.084,0,0,1,1.084-1.083H13a1.084,1.084,0,0,1,1.083,1.083Zm5.418-.447-3.251-1.146v-5.483l3.251-1.145Z" transform="translate(274 580.837)" fill="#202020"/>
    <path id="Path_7353" data-name="Path 7353" d="M18.436,169.38H15.186a1.083,1.083,0,1,0,0,2.167h3.251a1.083,1.083,0,0,0,0-2.167" transform="translate(264.232 558.859)" fill="#202020"/>
  </g>
</svg>
