<svg id="Group_783" data-name="Group 783" xmlns="http://www.w3.org/2000/svg" width="35.42" height="39" viewBox="0 0 35.42 39">
  <path id="Path_6678" data-name="Path 6678" d="M312.908,292.51H293.295a4.718,4.718,0,0,0-4.708,4.712v24.9a4.714,4.714,0,0,0,4.708,4.708h13.791a8.387,8.387,0,0,1-.271-1.419c-.007-.056-.01-.112-.014-.166H293.295a3.133,3.133,0,0,1-3.127-3.123v-24.9a3.136,3.136,0,0,1,3.127-3.127h19.613a3.135,3.135,0,0,1,3.131,3.127V316c.053,0,.105.007.155.014a8.468,8.468,0,0,1,1.426.267V297.222a4.719,4.719,0,0,0-4.712-4.712" transform="translate(-288.587 -292.51)" fill="#fb9d55"/>
  <path id="Path_6679" data-name="Path 6679" d="M324.147,325.8l-1.787.028a6.971,6.971,0,0,1-1.954,3.814c-.1.094-.195.188-.3.277a6.987,6.987,0,1,1-3.933-12.167,7.181,7.181,0,0,1,1.583.35,6.628,6.628,0,0,1,1.036.456,6.916,6.916,0,0,1,1.314.925l-1.133,1.133a5.239,5.239,0,0,0-1.381-.863,5.389,5.389,0,1,0,0,9.9,5.231,5.231,0,0,0,1.378-.863c.1-.087.2-.179.3-.277a5.306,5.306,0,0,0,1.454-2.662l-1.488.02,1.435-2.552.963-1.735.328.548Z" transform="translate(-288.727 -292.688)" fill="#fb9d55"/>
  <path id="Path_6680" data-name="Path 6680" d="M312.918,294.106H293.306a3.136,3.136,0,0,0-3.128,3.127v24.9a3.134,3.134,0,0,0,3.128,3.123h13.507a8.537,8.537,0,0,1,8.523-9.279c.236,0,.475.011.713.032v-18.78a3.134,3.134,0,0,0-3.13-3.127m-15.987,4.2a.936.936,0,0,1,.668-.277h11.011a.943.943,0,1,1,0,1.887H297.6a.942.942,0,0,1-.668-1.61m-2.48,20.492a.946.946,0,1,1,.945-.946.941.941,0,0,1-.945.946m0-4.723a.941.941,0,0,1-.941-.942.929.929,0,0,1,.277-.668.939.939,0,0,1,1.333,0,.929.929,0,0,1,.277.668.943.943,0,0,1-.945.942m0-4.719a.942.942,0,1,1,.945-.946.944.944,0,0,1-.945.946m0-4.719a.945.945,0,1,1,.945-.945.941.941,0,0,1-.945.945m11.683,13.882a.957.957,0,0,1-.668.278H297.6a.943.943,0,0,1-.945-.946.945.945,0,0,1,.945-.945h7.866a.944.944,0,0,1,.668,1.613m6.292-4.719a.951.951,0,0,1-.667.274H297.6a.943.943,0,1,1,0-1.887h14.16a.943.943,0,0,1,.945.945.957.957,0,0,1-.278.667m0-4.723a.936.936,0,0,1-.667.278H297.6a.943.943,0,1,1,0-1.886h14.16a.941.941,0,0,1,.667,1.608m0-4.719a.953.953,0,0,1-.667.278H297.6a.943.943,0,0,1-.945-.945.945.945,0,0,1,.945-.945h14.16a.944.944,0,0,1,.667,1.613" transform="translate(-288.598 -292.521)" fill="#fb9d55"/>
  <path id="Path_6681" data-name="Path 6681" d="M318,323.122v.708c0,.067-.019.086-.082.086h-3.071c-.038,0-.038,0-.038.034v2.587a.255.255,0,0,0,.1.211.525.525,0,0,0,.249.094,1.19,1.19,0,0,0,.345-.013,1.809,1.809,0,0,0,.579-.2,1.179,1.179,0,0,0,.3-.232,1.7,1.7,0,0,0,.117-.135c.031-.048.063-.091.09-.142a.961.961,0,0,0,.11-.265.868.868,0,0,0-.028-.513.463.463,0,0,0-.1-.148.009.009,0,0,0-.012,0c0,.029.009.057.012.085a.651.651,0,0,1-.427.708.805.805,0,0,1-.711-.063.681.681,0,0,1-.317-.437.934.934,0,0,1,.056-.651.865.865,0,0,1,.463-.444,1.191,1.191,0,0,1,1.07.06.7.7,0,0,1,.119.083,1.248,1.248,0,0,1,.441.676,1.447,1.447,0,0,1,.05.4,1.891,1.891,0,0,1-.094.544,2.027,2.027,0,0,1-.906,1.12,2.393,2.393,0,0,1-.831.305,2.232,2.232,0,0,1-.5.041,2.124,2.124,0,0,1-.5-.084,1.508,1.508,0,0,1-.312-.119.585.585,0,0,1-.227-.22.97.97,0,0,1-.132-.492v-2.759c0-.022-.006-.028-.028-.028h-.522c-.067,0-.092-.026-.1-.089v-.692c0-.072.029-.1.1-.1h.254c.089,0,.177,0,.264,0,.023,0,.029-.007.029-.032,0-.139,0-.277-.019-.415a.6.6,0,0,0-.088-.255.287.287,0,0,0-.208-.129.736.736,0,0,0-.444.094.158.158,0,0,1-.079.025.047.047,0,0,1-.048-.025c-.076-.132-.151-.264-.226-.393a.073.073,0,0,1,0-.066.185.185,0,0,1,.053-.057,2.1,2.1,0,0,1,.869-.342c.043-.007.088-.013.132-.017s.088,0,.129,0a.9.9,0,0,1,.186.02.828.828,0,0,1,.469.273,1.1,1.1,0,0,1,.218.434,2.382,2.382,0,0,1,.063.614c0,.079,0,.16,0,.239,0,.025.009.031.035.031.116,0,2.973,0,3.067,0,.063,0,.085.026.085.088" transform="translate(-288.757 -292.713)" fill="#fb9d55"/>
</svg>
