<svg id="Group_770" data-name="Group 770" xmlns="http://www.w3.org/2000/svg" width="48.79" height="48.705" viewBox="0 0 48.79 48.705">
  <path id="Path_6579" data-name="Path 6579" d="M203.773,7.124c.165.076.341.133.5.222.117.064.337.042.308.254s.041.454-.263.6a.742.742,0,0,0-.092,1.311.389.389,0,0,1,.175.425c-.19,2.6-.387,5.2-.557,7.807a7.152,7.152,0,0,0,.666,2.666.156.156,0,0,0,.151.119c.108-.007.151-.1.181-.181.105-.3.195-.609.311-.9a4.9,4.9,0,0,0,.3-2.212c-.186-2.4-.348-4.8-.526-7.194a.525.525,0,0,1,.221-.572.719.719,0,0,0-.058-1.21c-.309-.161-.352-.365-.331-.7,1.008.436,1.975.864,2.951,1.269a.387.387,0,0,1,.27.436c-.01,1.219,0,2.439-.006,3.658,0,.135-.026.27-.04.407-.12,1.27-.45,2.511-.5,3.791,0,.076.021.161-.076.207a1.405,1.405,0,0,0-.7,1.219,6.73,6.73,0,0,0,.8,4.288,1.167,1.167,0,0,0,.455.544c.512.224.63.7.818,1.137.156.366.325.728.508,1.081a14.14,14.14,0,0,0,4.4,5.319,6.5,6.5,0,0,0,7.182.551,9.722,9.722,0,0,0,2.321-1.73,16.646,16.646,0,0,0,3.725-5.792c.053-.131.066-.291.221-.37a1.979,1.979,0,0,0,.849-.954,6.821,6.821,0,0,0,.688-4.046,1.61,1.61,0,0,0-.489-1.1.445.445,0,0,1-.175-.435,15.1,15.1,0,0,0-.148-3.1,11.237,11.237,0,0,1-.3-1.607c0-1.014.007-2.03-.006-3.043a.433.433,0,0,1,.311-.48c1.291-.543,2.572-1.107,3.858-1.664a2.114,2.114,0,0,0,.537-.294.52.52,0,0,0,0-.892,2.064,2.064,0,0,0-.538-.294q-6.125-2.652-12.254-5.3a4.146,4.146,0,0,0-3.388.01q-5.191,2.236-10.374,4.49c-.627.27-1.255.538-1.88.816-.341.151-.758.28-.753.737,0,.436.408.562.739.714m4.763,12.208c.035-.568.311-.769.856-.618a6.333,6.333,0,0,1,.649-2,3.816,3.816,0,0,1,1.719-1.7.7.7,0,0,1,.646-.007q1.812.8,3.635,1.577a4.214,4.214,0,0,0,3.419,0c1.267-.541,2.53-1.094,3.795-1.641a.859.859,0,0,1,1.121.273,8.809,8.809,0,0,1,1.5,3.192c.058.2.067.4.378.246.172-.088.322.053.427.2a1.334,1.334,0,0,1,.208.574,4.506,4.506,0,0,1-.583,2.992c-.171.291-.383.578-.82.439-.171-.053-.149.144-.18.231a14.687,14.687,0,0,1-1.742,3.471,10.043,10.043,0,0,1-2.785,2.836,5.257,5.257,0,0,1-6.185,0,11.348,11.348,0,0,1-3.818-4.6,14.155,14.155,0,0,1-.732-1.766c-.046-.13-.062-.211-.252-.149-.3.1-.5-.124-.649-.339a3.5,3.5,0,0,1-.661-1.979c-.011-.408.026-.82.051-1.229" transform="translate(-197.973 0)" fill="#7569b0"/>
  <path id="Path_6580" data-name="Path 6580" d="M225.623,32.434a12.08,12.08,0,0,1,1.668-6.135c-.458-.058-.809-.078-1.011.444a1.623,1.623,0,0,1-.477.527A5.765,5.765,0,0,1,224.04,28.3a13.517,13.517,0,0,1-4.406.862,14.767,14.767,0,0,1-6.044-.862,4.14,4.14,0,0,1-2.124-1.427,1.158,1.158,0,0,0-1.342-.558c-1.3.169-2.609.179-3.906.4a7.414,7.414,0,0,0-5.021,3.408,16.4,16.4,0,0,0-2.036,4.531,3.742,3.742,0,0,0,1.684,4.545,12.236,12.236,0,0,0,3.194,1.36,34.347,34.347,0,0,0,5.413,1.073,54.718,54.718,0,0,0,9.357.768,54.667,54.667,0,0,0,9.417-.778q.688-.091,1.374-.2a12.133,12.133,0,0,1-3.978-8.989" transform="translate(-198.953 6.306)" fill="#7569b0"/>
  <path id="Path_6581" data-name="Path 6581" d="M232.19,23.209a9.963,9.963,0,1,0,6.674,17.35,9.647,9.647,0,0,0,1.457-1.642,9.951,9.951,0,0,0-8.131-15.708m0,17.735a7.773,7.773,0,1,1,7.771-7.775,7.781,7.781,0,0,1-7.771,7.775" transform="translate(-193.365 5.571)" fill="#7569b0"/>
  <path id="Path_6582" data-name="Path 6582" d="M235.143,29.834c-.15,0-4.67,0-4.855,0-.04,0-.055-.01-.055-.05,0-.124,0-.254,0-.378a3.779,3.779,0,0,0-.1-.971,1.718,1.718,0,0,0-.344-.687,1.317,1.317,0,0,0-.742-.433,1.4,1.4,0,0,0-.294-.031c-.064,0-.135,0-.2,0s-.139.015-.21.026a2.734,2.734,0,0,0-.537.129,2.8,2.8,0,0,0-.837.413.289.289,0,0,0-.084.089.113.113,0,0,0,0,.105c.119.2.239.413.358.623a.073.073,0,0,0,.074.04.267.267,0,0,0,.125-.04,1.149,1.149,0,0,1,.7-.15.455.455,0,0,1,.329.2.948.948,0,0,1,.139.4c.025.219.025.438.03.657,0,.04-.01.05-.045.05-.139,0-.279,0-.418,0h-.4c-.11,0-.155.045-.155.16v1.095c.01.1.05.139.155.139h.826c.035,0,.045.01.045.045v4.367a1.536,1.536,0,0,0,.21.776.93.93,0,0,0,.358.348,2.3,2.3,0,0,0,.494.19,3.333,3.333,0,0,0,.791.134,3.565,3.565,0,0,0,.8-.064,3.753,3.753,0,0,0,1.314-.484,3.206,3.206,0,0,0,1.435-1.772,3.024,3.024,0,0,0,.149-.862,2.307,2.307,0,0,0-.079-.636,1.981,1.981,0,0,0-.7-1.071,1.165,1.165,0,0,0-.19-.129,1.879,1.879,0,0,0-1.693-.094,1.36,1.36,0,0,0-.732.7,1.466,1.466,0,0,0-.089,1.03,1.076,1.076,0,0,0,.5.692,1.263,1.263,0,0,0,1.125.1,1.03,1.03,0,0,0,.678-1.12c0-.045-.015-.089-.02-.135.01,0,.015,0,.02,0a.769.769,0,0,1,.159.234,1.376,1.376,0,0,1,.045.812,1.541,1.541,0,0,1-.174.418c-.045.079-.1.149-.145.224a2.447,2.447,0,0,1-.184.213,1.873,1.873,0,0,1-.474.368,2.88,2.88,0,0,1-.916.314,1.841,1.841,0,0,1-.547.02.808.808,0,0,1-.393-.149.4.4,0,0,1-.165-.334V31.282c0-.055,0-.055.06-.055h4.86c.1,0,.129-.03.129-.134v-1.12c0-.1-.035-.14-.134-.14" transform="translate(-192.25 6.551)" fill="#7569b0"/>
</svg>
