<svg xmlns="http://www.w3.org/2000/svg" width="21.67" height="21.67" viewBox="0 0 21.67 21.67">
  <g id="Group_1005" data-name="Group 1005" transform="translate(-123 -361.002)">
    <path id="Path_7343" data-name="Path 7343" d="M21.935,403.889a5.959,5.959,0,1,0-5.959-5.959,5.967,5.967,0,0,0,5.959,5.959m0-9.751a3.792,3.792,0,1,1-3.792,3.792,3.8,3.8,0,0,1,3.792-3.792" transform="translate(111.9 -30.968)" fill="#202020"/>
    <path id="Path_7344" data-name="Path 7344" d="M20.944,437.281l-1.875,1.088a3.24,3.24,0,0,1,.434,1.623v1.083H2.167v-1.083a3.254,3.254,0,0,1,3.25-3.25h3.25v-2.167H5.417A5.424,5.424,0,0,0,0,439.992v3.25H21.67v-3.25a5.409,5.409,0,0,0-.726-2.711" transform="translate(123 -60.57)" fill="#202020"/>
    <path id="Path_7345" data-name="Path 7345" d="M35.63,432.9a1.083,1.083,0,1,0-1.532,1.532l2.406,2.407a1.083,1.083,0,0,0,1.532,0L42,432.874a1.084,1.084,0,0,0-1.532-1.532l-3.2,3.2Z" transform="translate(99.529 -58.103)" fill="#202020"/>
  </g>
</svg>
