<svg id="Group_780" data-name="Group 780" xmlns="http://www.w3.org/2000/svg" width="31.804" height="39" viewBox="0 0 31.804 39">
  <path id="Path_6686" data-name="Path 6686" d="M9.81,298.215c.132.061.273.106.4.177.093.053.27.035.246.2s.033.364-.211.479a.594.594,0,0,0-.073,1.049.312.312,0,0,1,.14.341c-.152,2.083-.309,4.166-.446,6.251a5.719,5.719,0,0,0,.533,2.134.125.125,0,0,0,.121.1c.086-.006.121-.076.145-.145.084-.241.156-.488.249-.725a3.918,3.918,0,0,0,.242-1.771c-.149-1.919-.279-3.841-.421-5.76a.42.42,0,0,1,.177-.458.576.576,0,0,0-.047-.969c-.247-.129-.282-.292-.265-.56.807.35,1.582.692,2.363,1.016a.31.31,0,0,1,.216.349c-.008.976,0,1.953,0,2.929,0,.108-.021.216-.032.326-.1,1.017-.36,2.011-.4,3.035,0,.06.017.129-.061.166a1.125,1.125,0,0,0-.56.976,5.387,5.387,0,0,0,.638,3.433.932.932,0,0,0,.364.437c.41.18.5.557.655.91.125.293.26.583.407.866a11.322,11.322,0,0,0,3.525,4.259,5.207,5.207,0,0,0,5.751.441,7.775,7.775,0,0,0,1.859-1.385,13.332,13.332,0,0,0,2.983-4.638c.043-.106.053-.234.177-.3a1.587,1.587,0,0,0,.68-.764,5.462,5.462,0,0,0,.551-3.24,1.291,1.291,0,0,0-.391-.88.356.356,0,0,1-.14-.348,12.091,12.091,0,0,0-.118-2.483,9.029,9.029,0,0,1-.238-1.287c0-.812.006-1.625,0-2.437a.347.347,0,0,1,.249-.385c1.034-.435,2.059-.887,3.089-1.332a1.685,1.685,0,0,0,.43-.236.416.416,0,0,0,0-.714,1.641,1.641,0,0,0-.43-.235q-4.906-2.124-9.814-4.247a3.32,3.32,0,0,0-2.713.008q-4.157,1.79-8.307,3.594c-.5.217-1,.432-1.505.655-.273.121-.607.224-.6.59,0,.349.327.45.592.572m3.814,9.776c.028-.455.249-.616.686-.494a5.043,5.043,0,0,1,.518-1.6A3.058,3.058,0,0,1,16.2,304.53a.565.565,0,0,1,.517-.007q1.451.643,2.91,1.264a3.375,3.375,0,0,0,2.738,0c1.015-.433,2.026-.876,3.038-1.314a.688.688,0,0,1,.9.219,7.037,7.037,0,0,1,1.2,2.556c.047.16.054.323.3.2.138-.07.258.043.342.162a1.069,1.069,0,0,1,.167.46,3.6,3.6,0,0,1-.467,2.4c-.137.233-.307.463-.656.352-.137-.043-.119.115-.144.185a11.753,11.753,0,0,1-1.4,2.779,8.043,8.043,0,0,1-2.23,2.271,4.21,4.21,0,0,1-4.953,0,9.088,9.088,0,0,1-3.057-3.686,11.312,11.312,0,0,1-.586-1.414c-.037-.105-.05-.169-.2-.119-.24.077-.4-.1-.519-.271a2.8,2.8,0,0,1-.529-1.584c-.009-.327.021-.657.041-.984" transform="translate(-5.166 -292.51)" fill="#0f64b8"/>
  <path id="Path_6687" data-name="Path 6687" d="M36.874,325.955a11.634,11.634,0,0,0-1.448-3.645,6.233,6.233,0,0,0-4.943-3.289c-.881-.093-1.767-.108-2.645-.218-.371-.047-.655-.068-.819.354a1.3,1.3,0,0,1-.381.422,4.625,4.625,0,0,1-1.411.822,10.825,10.825,0,0,1-3.528.69,11.827,11.827,0,0,1-4.84-.691,3.32,3.32,0,0,1-1.7-1.143.926.926,0,0,0-1.074-.447c-1.039.136-2.088.143-3.127.324a5.939,5.939,0,0,0-4.021,2.729A13.1,13.1,0,0,0,5.3,325.492a3,3,0,0,0,1.349,3.639,9.8,9.8,0,0,0,2.557,1.089,27.513,27.513,0,0,0,4.335.86,43.932,43.932,0,0,0,7.493.614,43.813,43.813,0,0,0,7.541-.623,28.558,28.558,0,0,0,4.123-.8,9.2,9.2,0,0,0,3.053-1.365,2.787,2.787,0,0,0,1.119-2.948" transform="translate(-5.137 -292.695)" fill="#0f64b8"/>
</svg>
