<svg xmlns="http://www.w3.org/2000/svg" width="21.674" height="21.674" viewBox="0 0 21.674 21.674">
  <g id="Group_1009" data-name="Group 1009" transform="translate(-123.163 -523.305)">
    <path id="Path_7342" data-name="Path 7342" d="M21.117,915.818H1.61A1.083,1.083,0,0,0,.526,916.9v19.507a1.084,1.084,0,0,0,1.761.847l5.121-4.1H21.117a1.083,1.083,0,0,0,1.084-1.084V916.9a1.083,1.083,0,0,0-1.084-1.084M20.033,930.99h-13a1.087,1.087,0,0,0-.678.237l-3.658,2.926V917.985h17.34Z" transform="translate(122.637 -392.513)" fill="#202020"/>
    <rect id="Rectangle_529" data-name="Rectangle 529" width="2.168" height="2.168" transform="translate(127.497 530.891)" fill="#202020"/>
    <rect id="Rectangle_530" data-name="Rectangle 530" width="2.168" height="2.168" transform="translate(132.916 530.891)" fill="#202020"/>
    <rect id="Rectangle_531" data-name="Rectangle 531" width="2.168" height="2.168" transform="translate(138.335 530.891)" fill="#202020"/>
  </g>
</svg>
