<svg id="Group_791" data-name="Group 791" xmlns="http://www.w3.org/2000/svg" width="42.045" height="39" viewBox="0 0 42.045 39">
  <g id="Group_787" data-name="Group 787" transform="translate(0 0)">
    <path id="Path_6708" data-name="Path 6708" d="M317.755,406.8c.01,0,.024,0,.038.007l.263.073c.115.032.232.066.344.105s.218.07.326.109c.123.045.246.09.365.144v-10.98a4.143,4.143,0,0,0-4.139-4.139H292.843a4.144,4.144,0,0,0-4.142,4.139v30.722a4.145,4.145,0,0,0,4.142,4.139h22.109a4.144,4.144,0,0,0,4.139-4.139v-1.726c-.119.053-.242.1-.365.144-.105.039-.213.078-.326.109s-.228.073-.344.1l-.263.074a.114.114,0,0,0-.038.007c-.14.035-.277.066-.417.094v1.192a2.388,2.388,0,0,1-2.385,2.385H292.843a2.39,2.39,0,0,1-2.388-2.385V396.257a2.39,2.39,0,0,1,2.388-2.385h22.109a2.388,2.388,0,0,1,2.385,2.385V406.7c.14.028.277.06.417.095" transform="translate(-288.701 -392.118)" fill="#936bd4"/>
    <path id="Path_6709" data-name="Path 6709" d="M315.43,406.528a9.877,9.877,0,0,1,1.92.189V396.269a2.388,2.388,0,0,0-2.385-2.385h-22.11a2.391,2.391,0,0,0-2.389,2.385v30.723a2.391,2.391,0,0,0,2.389,2.385h22.11a2.388,2.388,0,0,0,2.385-2.385V425.8a9.877,9.877,0,0,1-1.92.189,9.73,9.73,0,0,1,0-19.461m-20.958-9.109h9.312a.877.877,0,1,1,0,1.753h-9.312a.877.877,0,1,1,0-1.753m9.312,27.311h-9.312a.877.877,0,1,1,0-1.753h9.312a.877.877,0,1,1,0,1.753m0-3.493h-9.312a.877.877,0,1,1,0-1.753h9.312a.877.877,0,1,1,0,1.753m0-3.493h-9.312a.877.877,0,1,1,0-1.753h9.312a.877.877,0,1,1,0,1.753m0-3.489h-9.312a.877.877,0,0,1,0-1.754h9.312a.877.877,0,0,1,0,1.754m.971-8.056a.877.877,0,0,1-1.126.094l-3.356-2.367-4.833,4.833a.861.861,0,0,1-.618.256.877.877,0,0,1-.621-1.5l5.356-5.352a.876.876,0,0,1,1.125-.1l3.354,2.367,3.823-3.819-1.144-.937,3.658-.667v3.658l-1.15-.943Z" transform="translate(-288.713 -392.13)" fill="#936bd4"/>
    <path id="Path_6710" data-name="Path 6710" d="M315.552,408.383a7.977,7.977,0,1,0,5.345,13.892,7.7,7.7,0,0,0,1.167-1.314,7.971,7.971,0,0,0-6.513-12.577m0,14.2a6.224,6.224,0,1,1,6.225-6.225,6.23,6.23,0,0,1-6.225,6.225" transform="translate(-288.834 -392.232)" fill="#936bd4"/>
    <path id="Path_6711" data-name="Path 6711" d="M330.714,428.344l-6.506-6.1a.826.826,0,0,0-1.017-.091.656.656,0,0,0-.14.109L322,423.315h0l-.042.045a.832.832,0,0,0-.021,1.157l6.106,6.5a.835.835,0,0,0,.593.263h.014a.845.845,0,0,0,.59-.243l1.5-1.5a.821.821,0,0,0,.246-.6.835.835,0,0,0-.264-.6m-2.051.912-4.338-4.626,4.622,4.342Z" transform="translate(-288.933 -392.328)" fill="#936bd4"/>
    <path id="Path_6712" data-name="Path 6712" d="M322.393,423.4a.873.873,0,0,1-.621-.257l-1.4-1.4a.877.877,0,0,1,1.24-1.24l1.4,1.4a.877.877,0,0,1-.62,1.5" transform="translate(-288.922 -392.316)" fill="#936bd4"/>
    <path id="Path_6713" data-name="Path 6713" d="M314.438,420.063l-3.206-3.206a.877.877,0,0,1,1.24-1.24l1.967,1.967,4.243-4.244a.877.877,0,0,1,1.24,1.24Z" transform="translate(-288.858 -392.265)" fill="#936bd4"/>
  </g>
</svg>
