<svg id="Group_792" data-name="Group 792" xmlns="http://www.w3.org/2000/svg" width="39" height="29.721" viewBox="0 0 39 29.721">
  <path id="Path_6688" data-name="Path 6688" d="M37.558,507.933c.256.059.511.126.761.208v0a7.776,7.776,0,0,0-.761-.2m-.787-.14c.266.038.53.081.787.14a7.354,7.354,0,0,0-.787-.142Zm-10.148,6.418c.025-.074.05-.151.077-.226h0c-.028.074-.052.148-.074.226" transform="translate(-4.297 -495.101)" fill="#4c87d4"/>
  <path id="Path_6689" data-name="Path 6689" d="M35.611,524.951a7.784,7.784,0,1,1,7.784-7.784,7.793,7.793,0,0,1-7.784,7.784m0-14.02a6.236,6.236,0,1,0,6.236,6.235,6.243,6.243,0,0,0-6.236-6.235" transform="translate(-4.395 -495.231)" fill="#4c87d4"/>
  <path id="Path_6690" data-name="Path 6690" d="M36.249,513.177a.6.6,0,0,1-.6-.6v-2.4a.6.6,0,0,1,1.2,0v2.4a.6.6,0,0,1-.6.6" transform="translate(-5.033 -495.246)" fill="#4c87d4"/>
  <path id="Path_6691" data-name="Path 6691" d="M36.249,525.825a.6.6,0,0,1-.6-.6v-2.4a.6.6,0,1,1,1.2,0v2.4a.6.6,0,0,1-.6.6" transform="translate(-5.033 -496.277)" fill="#4c87d4"/>
  <path id="Path_6692" data-name="Path 6692" d="M43.667,518.406h-2.4a.6.6,0,1,1,0-1.2h2.4a.6.6,0,1,1,0,1.2" transform="translate(-5.442 -495.868)" fill="#4c87d4"/>
  <path id="Path_6693" data-name="Path 6693" d="M31.02,518.406h-2.4a.6.6,0,1,1,0-1.2h2.4a.6.6,0,1,1,0,1.2" transform="translate(-4.411 -495.868)" fill="#4c87d4"/>
  <path id="Path_6694" data-name="Path 6694" d="M36.255,518.294a.533.533,0,0,1-.359-.14L34.05,516.46a.531.531,0,1,1,.718-.783l1.471,1.35,2.949-2.949a.531.531,0,1,1,.751.751l-3.309,3.31a.531.531,0,0,1-.376.156" transform="translate(-4.889 -495.601)" fill="#4c87d4"/>
  <path id="Path_6695" data-name="Path 6695" d="M36.338,501.32v5.988c-.251-.081-.5-.149-.761-.208s-.52-.1-.786-.138V501.32a.619.619,0,0,0-.006-.108,2.2,2.2,0,0,0-2.2-2.093H6.065a2.2,2.2,0,0,0-2.2,2.093.619.619,0,0,0-.006.108v18.92a2.2,2.2,0,0,0,2.2,2.2H26.6l.037.041c.1.108.2.217.3.319s.214.211.325.31c.093.086.189.167.285.251q.229.19.474.368l.223.157.152.1H6.065a3.754,3.754,0,0,1-3.749-3.75V501.32a3.753,3.753,0,0,1,3.749-3.749H32.589a3.752,3.752,0,0,1,3.749,3.749" transform="translate(-2.316 -494.269)" fill="#4c87d4"/>
  <path id="Path_6696" data-name="Path 6696" d="M9.081,498.752h4.232v-4.777H9.081Zm1.548-3.229h1.136V497.2H10.629Z" transform="translate(-2.867 -493.975)" fill="#4c87d4"/>
  <path id="Path_6697" data-name="Path 6697" d="M27.984,498.752h4.232v-4.777H27.984Zm1.549-3.229h1.136V497.2H29.533Z" transform="translate(-4.408 -493.975)" fill="#4c87d4"/>
  <rect id="Rectangle_426" data-name="Rectangle 426" width="32.669" height="1.548" transform="translate(0.675 6.945)" fill="#4c87d4"/>
  <path id="Path_6698" data-name="Path 6698" d="M26.7,514.536c-.028.075-.052.149-.074.227.025-.075.05-.152.077-.227Z" transform="translate(-4.297 -495.651)" fill="#4c87d4"/>
  <path id="Path_6699" data-name="Path 6699" d="M4,503.22V520.7a2.2,2.2,0,0,0,2.2,2.2H26.735a9.324,9.324,0,0,1-1.3-1.857H20.549a.464.464,0,0,1-.464-.465v-2.167a.464.464,0,0,1,.464-.465h3.88a9.181,9.181,0,0,1-.09-1.238h-3.79a.464.464,0,0,1-.464-.465v-2.167a.464.464,0,0,1,.464-.464h4.307a8.5,8.5,0,0,1,.533-1.238h-4.84a.464.464,0,0,1-.464-.464v-2.167a.464.464,0,0,1,.464-.465h5.264a.463.463,0,0,1,.464.465v1.238a9.347,9.347,0,0,1,3.827-2.941H27.979a.463.463,0,0,1-.464-.465v-2.167a.463.463,0,0,1,.464-.464h5.264a.464.464,0,0,1,.464.464v1.923a9.125,9.125,0,0,1,1.22.086v-4.2Zm7.411,17.359a.464.464,0,0,1-.463.465H5.685a.464.464,0,0,1-.463-.465v-2.167a.464.464,0,0,1,.463-.465h5.265a.464.464,0,0,1,.463.465Zm0-4.334a.464.464,0,0,1-.463.465H5.685a.464.464,0,0,1-.463-.465v-2.167a.464.464,0,0,1,.463-.464h5.265a.464.464,0,0,1,.463.464Zm0-4.334a.464.464,0,0,1-.463.464H5.685a.464.464,0,0,1-.463-.464v-2.167a.464.464,0,0,1,.463-.465h5.265a.464.464,0,0,1,.463.465Zm0-4.335a.464.464,0,0,1-.463.465H5.685a.464.464,0,0,1-.463-.465v-2.167a.464.464,0,0,1,.463-.464h5.265a.463.463,0,0,1,.463.464Zm7.431,13a.464.464,0,0,1-.464.465H13.115a.464.464,0,0,1-.464-.465v-2.167a.463.463,0,0,1,.464-.465h5.264a.464.464,0,0,1,.464.465Zm0-4.334a.464.464,0,0,1-.464.465H13.115a.463.463,0,0,1-.464-.465v-2.167a.463.463,0,0,1,.464-.464h5.264a.464.464,0,0,1,.464.464Zm0-4.334a.464.464,0,0,1-.464.464H13.115a.463.463,0,0,1-.464-.464v-2.167a.463.463,0,0,1,.464-.465h5.264a.464.464,0,0,1,.464.465Zm0-4.335a.464.464,0,0,1-.464.465H13.115a.463.463,0,0,1-.464-.465v-2.167a.463.463,0,0,1,.464-.464h5.264a.464.464,0,0,1,.464.464Zm7.431,0a.464.464,0,0,1-.465.465H20.546a.464.464,0,0,1-.465-.465v-2.167a.464.464,0,0,1,.465-.464h5.263a.464.464,0,0,1,.465.464Z" transform="translate(-2.453 -494.728)" fill="#4c87d4"/>
</svg>
