<svg id="Group_776" data-name="Group 776" xmlns="http://www.w3.org/2000/svg" width="48.919" height="48.704" viewBox="0 0 48.919 48.704">
  <path id="Path_6566" data-name="Path 6566" d="M29.167,199.059a14.871,14.871,0,0,1,8.06,2.256,7.331,7.331,0,0,1,3.179,3.831,5.551,5.551,0,0,1-1.365,5.728,11.43,11.43,0,0,1-5.756,3.264,12.436,12.436,0,0,1-2.117.4.444.444,0,0,0-.455.391c-.322,1.209-.66,2.414-1,3.618-.041.145-.015.362-.192.41s-.258-.157-.357-.272q-1.8-2.059-3.6-4.129a1.214,1.214,0,0,0-.657-.4,11.681,11.681,0,0,1-5.562-2.985,5.746,5.746,0,0,1-.11-8.477A11.8,11.8,0,0,1,25.1,199.53a17.507,17.507,0,0,1,4.064-.471m5.173,9.4a1.588,1.588,0,1,0-1.564-1.6,1.615,1.615,0,0,0,1.564,1.6m-12.162-1.613a1.582,1.582,0,1,0,1.6-1.562,1.6,1.6,0,0,0-1.6,1.562m8.458.033a1.578,1.578,0,1,0-1.574,1.58,1.587,1.587,0,0,0,1.574-1.58" transform="translate(-4.304 -199.059)" fill="#976464"/>
  <path id="Path_6567" data-name="Path 6567" d="M28.724,240.921a32.783,32.783,0,0,1-9.758-1.477,1.713,1.713,0,0,1-1.4-1.911c.012-1.131-.073-2.267.051-3.4a7.29,7.29,0,0,1,6.082-6.427c.327-.056.66-.084.99-.133a1.04,1.04,0,0,1,.615.1,7.8,7.8,0,0,0,6.87,0,.915.915,0,0,1,.455-.122,7.347,7.347,0,0,1,7.181,6.177,22.214,22.214,0,0,1,.077,4.23,1.542,1.542,0,0,1-1.215,1.425,32.75,32.75,0,0,1-9.95,1.528" transform="translate(-4.274 -192.217)" fill="#976464"/>
  <path id="Path_6568" data-name="Path 6568" d="M31.894,226.686a6.675,6.675,0,0,1,3.75-1.83,2.776,2.776,0,0,1,1.579.193,6.744,6.744,0,0,0,5.58-.128,1.259,1.259,0,0,1,.609-.139,6.556,6.556,0,0,1,6.338,6.665c0,.733,0,1.465,0,2.2a1.516,1.516,0,0,1-1.216,1.646,29.723,29.723,0,0,1-9.692,1.311c-.357-.01-.377-.17-.368-.44a9.453,9.453,0,0,0-1.758-5.981,9.185,9.185,0,0,0-4.464-3.354c-.1-.036-.195-.077-.356-.14" transform="translate(-0.831 -192.884)" fill="#976464"/>
  <path id="Path_6569" data-name="Path 6569" d="M24.729,226.694a9.391,9.391,0,0,0-6.592,9.144c0,.75,0,.745-.763.761a29.149,29.149,0,0,1-9.256-1.3,1.519,1.519,0,0,1-1.256-1.7A19.059,19.059,0,0,1,7,230.021a6.505,6.505,0,0,1,5.527-5.162,2.93,2.93,0,0,1,1.62.195,6.766,6.766,0,0,0,5.581-.133.871.871,0,0,1,.409-.143,6.835,6.835,0,0,1,4.6,1.916" transform="translate(-6.844 -192.885)" fill="#976464"/>
  <path id="Path_6570" data-name="Path 6570" d="M20.977,212.092A10.678,10.678,0,0,1,17.73,213a.451.451,0,0,0-.449.4c-.223.849-.463,1.7-.7,2.541-.037.133-.014.326-.192.36-.15.029-.212-.139-.3-.234-.871-.992-1.74-1.982-2.6-2.984a1.16,1.16,0,0,0-.626-.378,8.817,8.817,0,0,1-4.095-2.221,4.32,4.32,0,0,1,0-6.462,8.9,8.9,0,0,1,4.443-2.306,12.574,12.574,0,0,1,6.053.088.765.765,0,0,1,.4.154c-2.579,3.719-1.41,7.655,1.3,10.142" transform="translate(-6.73 -198.502)" fill="#976464"/>
  <path id="Path_6571" data-name="Path 6571" d="M35.13,212.255a8.207,8.207,0,0,0,2.852-4.974,7.287,7.287,0,0,0-1.5-5.474,7.011,7.011,0,0,1,1.559-.319,11.8,11.8,0,0,1,7.3,1.311,6.5,6.5,0,0,1,2.277,2.027,4.144,4.144,0,0,1-.041,4.894,7.4,7.4,0,0,1-3.3,2.5,2.855,2.855,0,0,1-.673.246,3.2,3.2,0,0,0-2.049,1.369c-.616.784-1.3,1.513-1.959,2.264-.076.086-.133.228-.275.195s-.134-.182-.165-.294c-.238-.846-.481-1.689-.7-2.538a.522.522,0,0,0-.513-.474,10.048,10.048,0,0,1-2.811-.73" transform="translate(-0.054 -198.5)" fill="#976464"/>
  <path id="Path_6572" data-name="Path 6572" d="M27.687,228.809a5.92,5.92,0,1,1,5.953-5.887,5.9,5.9,0,0,1-5.953,5.887" transform="translate(-3.254 -194.76)" fill="#976464"/>
  <path id="Path_6573" data-name="Path 6573" d="M15.818,225.887a5.251,5.251,0,1,1,5.29-5.192,5.259,5.259,0,0,1-5.29,5.192" transform="translate(-5.942 -195.14)" fill="#976464"/>
  <path id="Path_6574" data-name="Path 6574" d="M39.258,215.387a5.251,5.251,0,1,1-5.182,5.34,5.256,5.256,0,0,1,5.182-5.34" transform="translate(-0.307 -195.14)" fill="#976464"/>
</svg>
