<svg id="Group_789" data-name="Group 789" xmlns="http://www.w3.org/2000/svg" width="39" height="25.262" viewBox="0 0 39 25.262">
  <g id="Group_785" data-name="Group 785" transform="translate(0 0)">
    <path id="Path_6714" data-name="Path 6714" d="M122.22,412.776a2.4,2.4,0,0,1-1.536-.549l-4.08,3.106a2.424,2.424,0,1,1-4.639.987,3.019,3.019,0,0,1,.02-.315L108.56,414.7a2.421,2.421,0,1,1,.421-1.364,1.914,1.914,0,0,1-.024.315l3.429,1.309a2.42,2.42,0,0,1,3.54-.516l4.079-3.106a2.425,2.425,0,1,1,2.215,1.438m8.637-10.275H97.919a.892.892,0,1,1,0-1.784h32.939a.892.892,0,1,1,0,1.784m1.964-3.924H95.958a1.069,1.069,0,0,0-1.068,1.071v3.924a1.069,1.069,0,0,0,1.069,1.069h1.4v16.031a3.168,3.168,0,0,0,3.167,3.167h27.718a3.168,3.168,0,0,0,3.167-3.167V404.641h1.407a1.069,1.069,0,0,0,1.069-1.069v-3.924a1.069,1.069,0,0,0-1.069-1.071" transform="translate(-94.89 -398.577)" fill="#08a88a"/>
  </g>
</svg>
