<svg xmlns="http://www.w3.org/2000/svg" width="23.019" height="16.881" viewBox="0 0 23.019 16.881">
  <g id="Group_994" data-name="Group 994" transform="translate(717.713 162.464)">
    <path id="Path_7325" data-name="Path 7325" d="M495.4,35.324a.767.767,0,0,1,.767.767v1.535a2.3,2.3,0,0,0,4.6,0V36.092a.767.767,0,0,1,.767-.767h8.205l-1.369-3.649a3.854,3.854,0,0,0-3.592-2.49H492.16a3.854,3.854,0,0,0-3.592,2.489L487.2,35.324Z" transform="translate(-1204.677 -191.65)" fill="#4f4f4f"/>
    <path id="Path_7326" data-name="Path 7326" d="M500.308,102.147v.767a3.837,3.837,0,1,1-7.673,0v-.767h-7.673v5.371a3.841,3.841,0,0,0,3.837,3.837h15.346a3.841,3.841,0,0,0,3.837-3.837v-5.371Z" transform="translate(-1202.675 -256.938)" fill="#4f4f4f"/>
  </g>
</svg>
