<svg xmlns="http://www.w3.org/2000/svg" width="19.545" height="21.67" viewBox="0 0 19.545 21.67">
  <g id="Group_1019" data-name="Group 1019" transform="translate(-351.066 -580.837)">
    <path id="Path_7351" data-name="Path 7351" d="M102.72,51.408H98.278a.987.987,0,1,0,0,1.974h4.442a.987.987,0,0,0,0-1.974" transform="translate(259.437 543.82)" fill="#202020"/>
    <path id="Path_7354" data-name="Path 7354" d="M93.82,14.924a.985.985,0,0,0-.985.985v8.859h-13.8V9.011h6.9a.986.986,0,1,0,0-1.971H78.052a.986.986,0,0,0-.986.986V25.754a.985.985,0,0,0,.986.985H93.82a.985.985,0,0,0,.985-.985V15.91a.985.985,0,0,0-.985-.985" transform="translate(274 575.768)" fill="#202020"/>
    <path id="Path_7355" data-name="Path 7355" d="M116.176,3.245,113.219.288a.986.986,0,0,0-1.394,0l-6.9,6.9a.985.985,0,0,0-.289.7v2.957a.985.985,0,0,0,.985.985h2.957a.986.986,0,0,0,.7-.289l6.9-6.9a.985.985,0,0,0,0-1.394m-8,6.61h-1.563V8.292l5.913-5.913,1.563,1.563Z" transform="translate(254.147 580.837)" fill="#202020"/>
  </g>
</svg>
