<svg id="Group_772" data-name="Group 772" xmlns="http://www.w3.org/2000/svg" width="47.809" height="48.704" viewBox="0 0 47.809 48.704">
  <path id="Path_6561" data-name="Path 6561" d="M17.638,109.536c.057-.017.061,0,.074.043a4.042,4.042,0,0,0,.224.536,3.451,3.451,0,0,0,1.153,1.391,1.588,1.588,0,0,0,1.865,0,2.885,2.885,0,0,0,.842-.856,4.4,4.4,0,0,0,.527-1.049c.009-.026,0-.083.057-.069.131.043.193-.043.246-.131a1.36,1.36,0,0,0,.176-.9.429.429,0,0,0-.062-.176c-.031-.043-.079-.087-.131-.057-.092.045-.1-.017-.114-.074a2.664,2.664,0,0,0-.453-.965.262.262,0,0,0-.337-.084c-.386.167-.764.334-1.15.5a1.277,1.277,0,0,1-1.032,0c-.368-.154-.732-.315-1.1-.477a.22.22,0,0,0-.2,0,1.154,1.154,0,0,0-.518.513,1.969,1.969,0,0,0-.2.605c-.162-.043-.246.014-.259.19,0,.123-.017.246-.012.368a1.023,1.023,0,0,0,.2.6c.048.066.105.131.2.105" transform="translate(-8.911 -96.957)" fill="#1b83a8"/>
  <path id="Path_6562" data-name="Path 6562" d="M36.208,137.512a12.173,12.173,0,0,1,12.16-12.159c.035,0,.069,0,.11,0V103.02a4.1,4.1,0,0,0-4.1-4.1H14.621a4.1,4.1,0,0,0-4.1,4.1v40.507a4.1,4.1,0,0,0,4.1,4.1H41.633a12.156,12.156,0,0,1-5.425-10.114m-4.852-32.606a1.1,1.1,0,0,1,.776-.32H43.1a1.1,1.1,0,1,1,0,2.194H32.132a1.1,1.1,0,0,1-.776-1.874m0,6.112a1.1,1.1,0,0,1,.776-.32H43.1a1.1,1.1,0,1,1,0,2.194H32.132a1.1,1.1,0,0,1-.776-1.874m0,6.108a1.1,1.1,0,0,1,.776-.321H43.1a1.1,1.1,0,1,1,0,2.194H32.132a1.1,1.1,0,0,1-.776-1.872M17.435,106.3c.188-.083.376-.162.569-.246,1.045-.451,2.088-.908,3.134-1.355a1.251,1.251,0,0,1,1.021,0q1.858.8,3.7,1.6a.7.7,0,0,1,.162.087.161.161,0,0,1,0,.273.557.557,0,0,1-.162.088c-.387.166-.776.337-1.163.5a.13.13,0,0,0-.1.144c0,.308,0,.61,0,.918a3.614,3.614,0,0,0,.087.487,4.534,4.534,0,0,1,.043.934.137.137,0,0,0,.053.131.5.5,0,0,1,.149.334,2.091,2.091,0,0,1-.207,1.225.6.6,0,0,1-.258.285c-.048.026-.048.074-.066.114a5.021,5.021,0,0,1-1.127,1.75,2.893,2.893,0,0,1-.7.522,1.967,1.967,0,0,1-2.171-.166,4.246,4.246,0,0,1-1.329-1.606c-.057-.11-.105-.219-.155-.329-.056-.133-.091-.277-.246-.342a.358.358,0,0,1-.139-.167,2.039,2.039,0,0,1-.242-1.295.426.426,0,0,1,.211-.368c.031-.014.026-.04.026-.061.014-.387.114-.764.149-1.146,0-.04.012-.083.012-.123,0-.368,0-.738,0-1.106,0-.066-.012-.105-.082-.131-.294-.123-.585-.25-.892-.382,0,.1.009.162.1.211a.216.216,0,0,1,.017.365.162.162,0,0,0-.067.171c.052.728.1,1.452.159,2.176a1.445,1.445,0,0,1-.092.667c-.036.087-.062.184-.093.272-.009.026-.021.052-.056.057a.048.048,0,0,1-.045-.035,2.186,2.186,0,0,1-.2-.807c.052-.786.108-1.571.166-2.361a.112.112,0,0,0-.053-.128.225.225,0,0,1,.03-.394c.094-.043.072-.114.081-.18s-.057-.057-.092-.079-.1-.043-.154-.066c-.1-.048-.219-.083-.223-.215s.125-.176.228-.224m-1.694,10.663a4.84,4.84,0,0,1,.619-1.369,2.224,2.224,0,0,1,1.513-1.032c.394-.066.79-.071,1.181-.123a.356.356,0,0,1,.408.171,1.256,1.256,0,0,0,.64.43,4.384,4.384,0,0,0,1.825.258,4.063,4.063,0,0,0,1.331-.258,1.737,1.737,0,0,0,.536-.311.543.543,0,0,0,.144-.159c.061-.157.167-.149.306-.131.33.04.667.043,1,.079a2.349,2.349,0,0,1,1.866,1.241,4.359,4.359,0,0,1,.548,1.374,1.053,1.053,0,0,1-.422,1.114,3.392,3.392,0,0,1-1.154.513,10.37,10.37,0,0,1-1.551.308,16.664,16.664,0,0,1-2.85.233,16.44,16.44,0,0,1-2.825-.233,10.346,10.346,0,0,1-1.636-.325,3.685,3.685,0,0,1-.966-.408,1.136,1.136,0,0,1-.508-1.373m.258,6.27a1.1,1.1,0,0,1,.778-.32H39.153a1.1,1.1,0,0,1,1.1,1.1,1.109,1.109,0,0,1-.32.777,1.1,1.1,0,0,1-.776.32H16.776A1.1,1.1,0,0,1,16,123.234m16.472,19.88a1.094,1.094,0,0,1-.778.321H16.776a1.1,1.1,0,1,1,0-2.194H31.693a1.1,1.1,0,0,1,.778,1.872m0-6.107a1.1,1.1,0,0,1-.778.32H16.776a1.1,1.1,0,1,1,0-2.194H31.693a1.1,1.1,0,0,1,.778,1.874m1.756-6.112a1.1,1.1,0,0,1-.778.32H16.776a1.094,1.094,0,0,1-1.1-1.1,1.092,1.092,0,0,1,1.1-1.1H33.449a1.1,1.1,0,0,1,.778,1.874" transform="translate(-10.524 -98.922)" fill="#1b83a8"/>
  <path id="Path_6563" data-name="Path 6563" d="M42.97,122.006a9.965,9.965,0,1,0,6.674,17.35,9.43,9.43,0,0,0,1.457-1.637,9.955,9.955,0,0,0-8.131-15.713m0,17.74a7.773,7.773,0,1,1,7.77-7.775,7.781,7.781,0,0,1-7.77,7.775" transform="translate(-5.126 -93.381)" fill="#1b83a8"/>
  <path id="Path_6564" data-name="Path 6564" d="M42.861,125.973H40.667v5.7H38.034l3.729,4.387,3.73-4.387H42.861Z" transform="translate(-3.92 -92.429)" fill="#1b83a8"/>
</svg>
