<svg id="Group_796" data-name="Group 796" xmlns="http://www.w3.org/2000/svg" width="39" height="29.55" viewBox="0 0 39 29.55">
  <path id="Path_6665" data-name="Path 6665" d="M30.063,597.52H3.723A3.728,3.728,0,0,0,0,601.244v18.789a3.728,3.728,0,0,0,3.723,3.723h22.5a8.969,8.969,0,0,1-1.774-1.534l0,0H3.723a2.187,2.187,0,0,1-2.185-2.186V601.244a.625.625,0,0,1,.006-.109,2.181,2.181,0,0,1,2.179-2.077h26.34a2.182,2.182,0,0,1,2.18,2.077.625.625,0,0,1,.006.109v5.6c.016,0,.028.021.043.055a8.578,8.578,0,0,1,1.494.283v-5.94a3.727,3.727,0,0,0-3.724-3.724" transform="translate(0 -594.243)" fill="#d56162"/>
  <rect id="Rectangle_423" data-name="Rectangle 423" width="4.199" height="4.744" transform="translate(6.171)" fill="#d56162"/>
  <rect id="Rectangle_424" data-name="Rectangle 424" width="4.203" height="4.744" transform="translate(23.413)" fill="#d56162"/>
  <rect id="Rectangle_425" data-name="Rectangle 425" width="32.443" height="1.538" transform="translate(0.671 6.893)" fill="#d56162"/>
  <path id="Path_6666" data-name="Path 6666" d="M36.556,626.057c.071.019.141.04.209.062v-.006c-.068-.021-.139-.04-.209-.056" transform="translate(-2.979 -596.568)" fill="#d56162"/>
  <path id="Path_6667" data-name="Path 6667" d="M36.556,626.057c.071.019.141.04.209.062v-.006c-.068-.021-.139-.04-.209-.056" transform="translate(-2.979 -596.568)" fill="#d56162"/>
  <path id="Path_6668" data-name="Path 6668" d="M33.41,624.72a7.687,7.687,0,1,1,7.686-7.686,7.7,7.7,0,0,1-7.686,7.686m0-13.835a6.149,6.149,0,1,0,6.149,6.149,6.157,6.157,0,0,0-6.149-6.149" transform="translate(-2.096 -595.206)" fill="#d56162"/>
  <path id="Path_6669" data-name="Path 6669" d="M34.917,614.561a.976.976,0,0,0,.693-1.667.955.955,0,0,0-.693-.281.924.924,0,0,0-.684.283.989.989,0,0,0,0,1.378.928.928,0,0,0,.682.286" transform="translate(-2.767 -595.473)" fill="#d56162"/>
  <path id="Path_6670" data-name="Path 6670" d="M35.135,619.733l-.06.109a3.982,3.982,0,0,1-.543.805.582.582,0,0,1-.355.213c-.062,0-.08-.02-.088-.03a.259.259,0,0,1-.038-.158,1.961,1.961,0,0,1,.1-.483c.071-.244.212-.658.421-1.231.292-.815.475-1.365.558-1.681a3.224,3.224,0,0,0,.129-.8,1.387,1.387,0,0,0-.3-.939,1.072,1.072,0,0,0-.849-.358,1.938,1.938,0,0,0-1.279.584,5.38,5.38,0,0,0-1.121,1.559l-.155.3h1.1l.061-.1a4.047,4.047,0,0,1,.593-.8.609.609,0,0,1,.39-.2.092.092,0,0,1,.053.01.248.248,0,0,1,.027.143,5.942,5.942,0,0,1-.423,1.308c-.159.409-.284.74-.374.988a8.772,8.772,0,0,0-.337,1.082,3.881,3.881,0,0,0-.118.854,1.323,1.323,0,0,0,.316.93,1.141,1.141,0,0,0,.879.351,1.882,1.882,0,0,0,1.307-.567,5.074,5.074,0,0,0,1.053-1.6l.134-.295Z" transform="translate(-2.571 -595.682)" fill="#d56162"/>
  <path id="Path_6671" data-name="Path 6671" d="M32.386,607.3v-4.172H1.674v17.359a2.189,2.189,0,0,0,2.186,2.186H24.583a9.17,9.17,0,0,1-1.823-3.076,1.35,1.35,0,0,1-.3-.857c0-.049,0-.1.006-.147a9,9,0,0,1-.237-2.069,9.1,9.1,0,0,1,.338-2.469v0a1.389,1.389,0,0,1,.3-1.517,1.393,1.393,0,0,1,.421-.288,9.161,9.161,0,0,1,2-2.576H23.841a1.384,1.384,0,0,1,0-2.768h4.92a1.377,1.377,0,0,1,1.095.538,8.8,8.8,0,0,1,1.6-.141,8.585,8.585,0,0,1,.977.055c-.015-.033-.028-.052-.042-.055m-21.4,12.418a1.376,1.376,0,0,1-.978.406H5.086a1.384,1.384,0,0,1,0-2.768h4.92a1.383,1.383,0,0,1,.978,2.361m0-5.227a1.375,1.375,0,0,1-.978.405H5.086a1.383,1.383,0,0,1,0-2.767h4.92a1.383,1.383,0,0,1,.978,2.361m0-5.227a1.376,1.376,0,0,1-.978.406H5.086a1.384,1.384,0,0,1,0-2.768h4.92a1.383,1.383,0,0,1,.978,2.361m9.377,10.454a1.372,1.372,0,0,1-.977.406h-4.92a1.384,1.384,0,0,1,0-2.768h4.92a1.383,1.383,0,0,1,.977,2.361m0-5.227a1.371,1.371,0,0,1-.977.405h-4.92a1.383,1.383,0,1,1,0-2.767h4.92a1.383,1.383,0,0,1,.977,2.361m0-5.227a1.372,1.372,0,0,1-.977.406h-4.92a1.384,1.384,0,0,1,0-2.768h4.92a1.383,1.383,0,0,1,.977,2.361" transform="translate(-0.136 -594.7)" fill="#d56162"/>
</svg>
