<svg xmlns="http://www.w3.org/2000/svg" width="21.674" height="21.674" viewBox="0 0 21.674 21.674">
  <g id="Group_1008" data-name="Group 1008" transform="translate(-123.163 -482.77)">
    <path id="Path_7339" data-name="Path 7339" d="M21.513,796.08a9.17,9.17,0,0,0,.653,3.4,1.086,1.086,0,0,0,.87.675,1.21,1.21,0,0,0,.138.009,1.084,1.084,0,0,0,.874-.442,10.482,10.482,0,0,1,5.051-3.594v.785a1.084,1.084,0,0,0,1.85.766l5.419-5.418a1.083,1.083,0,0,0,0-1.532L30.949,785.3a1.084,1.084,0,0,0-1.85.766v.951a9.231,9.231,0,0,0-7.586,9.058m8.742-7.019a1.085,1.085,0,0,0,.859-.527l2.955,2.955L31.2,794.361a1.084,1.084,0,0,0-1.2-.689,12.5,12.5,0,0,0-6.281,3.169,7.034,7.034,0,0,1,6.533-7.779" transform="translate(108.152 -302.217)" fill="#202020"/>
    <path id="Path_7340" data-name="Path 7340" d="M21.116,796.909a1.083,1.083,0,0,0-1.084,1.084v4.495a2.01,2.01,0,0,1-2.008,2.007H4.7a2.01,2.01,0,0,1-2.007-2.007V789.163A2.01,2.01,0,0,1,4.7,787.155H9.195a1.084,1.084,0,1,0,0-2.167H4.7a4.18,4.18,0,0,0-4.175,4.175v13.324A4.18,4.18,0,0,0,4.7,806.662H18.024a4.18,4.18,0,0,0,4.175-4.175v-4.495a1.083,1.083,0,0,0-1.084-1.084" transform="translate(122.638 -302.217)" fill="#202020"/>
  </g>
</svg>
