<svg xmlns="http://www.w3.org/2000/svg" width="21.674" height="21.674" viewBox="0 0 21.674 21.674">
  <g id="Group_1003" data-name="Group 1003" transform="translate(-123.163 -280.095)">
    <path id="Path_7338" data-name="Path 7338" d="M16.176,130.835H6.55a6.03,6.03,0,0,0-6.024,6.024v9.626a6.03,6.03,0,0,0,6.024,6.024h9.626a6.03,6.03,0,0,0,6.024-6.024v-9.626a6.03,6.03,0,0,0-6.024-6.024m3.856,15.65a3.861,3.861,0,0,1-3.856,3.856H6.55a3.861,3.861,0,0,1-3.857-3.856v-9.626A3.861,3.861,0,0,1,6.55,133h9.626a3.861,3.861,0,0,1,3.856,3.857Z" transform="translate(122.637 149.26)" fill="#202020"/>
    <rect id="Rectangle_526" data-name="Rectangle 526" width="2.167" height="7.586" transform="translate(128.581 288.765)" fill="#202020"/>
    <rect id="Rectangle_527" data-name="Rectangle 527" width="2.167" height="4.335" transform="translate(137.251 292.016)" fill="#202020"/>
    <rect id="Rectangle_528" data-name="Rectangle 528" width="2.168" height="10.837" transform="translate(132.916 285.514)" fill="#202020"/>
  </g>
</svg>
